<?xml version="1.0" encoding="utf-8" standalone="no"?>
<!DOCTYPE svg PUBLIC "-//W3C//DTD SVG 1.1//EN"
  "http://www.w3.org/Graphics/SVG/1.1/DTD/svg11.dtd">
<svg xmlns:xlink="http://www.w3.org/1999/xlink" width="864pt" height="432pt" viewBox="0 0 864 432" xmlns="http://www.w3.org/2000/svg" version="1.1">
 <metadata>
  <rdf:RDF xmlns:dc="http://purl.org/dc/elements/1.1/" xmlns:cc="http://creativecommons.org/ns#" xmlns:rdf="http://www.w3.org/1999/02/22-rdf-syntax-ns#">
   <cc:Work>
    <dc:type rdf:resource="http://purl.org/dc/dcmitype/StillImage"/>
    <dc:date>2021-12-11T18:54:28.122879</dc:date>
    <dc:format>image/svg+xml</dc:format>
    <dc:creator>
     <cc:Agent>
      <dc:title>Matplotlib v3.5.0, https://matplotlib.org/</dc:title>
     </cc:Agent>
    </dc:creator>
   </cc:Work>
  </rdf:RDF>
 </metadata>
 <defs>
  <style type="text/css">*{stroke-linejoin: round; stroke-linecap: butt}</style>
 </defs>
 <g id="figure_1">
  <g id="patch_1">
   <path d="M 0 432 
L 864 432 
L 864 0 
L 0 0 
L 0 432 
z
" style="fill: none"/>
  </g>
  <g id="axes_1">
   <g id="patch_2">
    <path d="M 108 378 
L 643.68 378 
L 643.68 51.84 
L 108 51.84 
z
" style="fill: #ffffff"/>
   </g>
   <g id="matplotlib.axis_1">
    <g id="xtick_1">
     <g id="line2d_1">
      <path d="M 108 378 
L 108 51.84 
" clip-path="url(#pe1785795f5)" style="fill: none; stroke: #b0b0b0; stroke-width: 0.8; stroke-linecap: square"/>
     </g>
     <g id="line2d_2">
      <defs>
       <path id="mbee638881c" d="M 0 0 
L 0 3.5 
" style="stroke: #000000; stroke-width: 0.8"/>
      </defs>
      <g>
       <use xlink:href="#mbee638881c" x="108" y="378" style="stroke: #000000; stroke-width: 0.8"/>
      </g>
     </g>
     <g id="text_1">
      <!-- Jan -->
      <g transform="translate(100.292187 392.598437)scale(0.1 -0.1)">
       <defs>
        <path id="DejaVuSans-4a" d="M 628 4666 
L 1259 4666 
L 1259 325 
Q 1259 -519 939 -900 
Q 619 -1281 -91 -1281 
L -331 -1281 
L -331 -750 
L -134 -750 
Q 284 -750 456 -515 
Q 628 -281 628 325 
L 628 4666 
z
" transform="scale(0.015625)"/>
        <path id="DejaVuSans-61" d="M 2194 1759 
Q 1497 1759 1228 1600 
Q 959 1441 959 1056 
Q 959 750 1161 570 
Q 1363 391 1709 391 
Q 2188 391 2477 730 
Q 2766 1069 2766 1631 
L 2766 1759 
L 2194 1759 
z
M 3341 1997 
L 3341 0 
L 2766 0 
L 2766 531 
Q 2569 213 2275 61 
Q 1981 -91 1556 -91 
Q 1019 -91 701 211 
Q 384 513 384 1019 
Q 384 1609 779 1909 
Q 1175 2209 1959 2209 
L 2766 2209 
L 2766 2266 
Q 2766 2663 2505 2880 
Q 2244 3097 1772 3097 
Q 1472 3097 1187 3025 
Q 903 2953 641 2809 
L 641 3341 
Q 956 3463 1253 3523 
Q 1550 3584 1831 3584 
Q 2591 3584 2966 3190 
Q 3341 2797 3341 1997 
z
" transform="scale(0.015625)"/>
        <path id="DejaVuSans-6e" d="M 3513 2113 
L 3513 0 
L 2938 0 
L 2938 2094 
Q 2938 2591 2744 2837 
Q 2550 3084 2163 3084 
Q 1697 3084 1428 2787 
Q 1159 2491 1159 1978 
L 1159 0 
L 581 0 
L 581 3500 
L 1159 3500 
L 1159 2956 
Q 1366 3272 1645 3428 
Q 1925 3584 2291 3584 
Q 2894 3584 3203 3211 
Q 3513 2838 3513 2113 
z
" transform="scale(0.015625)"/>
       </defs>
       <use xlink:href="#DejaVuSans-4a"/>
       <use xlink:href="#DejaVuSans-61" x="29.492188"/>
       <use xlink:href="#DejaVuSans-6e" x="90.771484"/>
      </g>
      <!-- 2021 -->
      <g transform="translate(95.275 403.79625)scale(0.1 -0.1)">
       <defs>
        <path id="DejaVuSans-32" d="M 1228 531 
L 3431 531 
L 3431 0 
L 469 0 
L 469 531 
Q 828 903 1448 1529 
Q 2069 2156 2228 2338 
Q 2531 2678 2651 2914 
Q 2772 3150 2772 3378 
Q 2772 3750 2511 3984 
Q 2250 4219 1831 4219 
Q 1534 4219 1204 4116 
Q 875 4013 500 3803 
L 500 4441 
Q 881 4594 1212 4672 
Q 1544 4750 1819 4750 
Q 2544 4750 2975 4387 
Q 3406 4025 3406 3419 
Q 3406 3131 3298 2873 
Q 3191 2616 2906 2266 
Q 2828 2175 2409 1742 
Q 1991 1309 1228 531 
z
" transform="scale(0.015625)"/>
        <path id="DejaVuSans-30" d="M 2034 4250 
Q 1547 4250 1301 3770 
Q 1056 3291 1056 2328 
Q 1056 1369 1301 889 
Q 1547 409 2034 409 
Q 2525 409 2770 889 
Q 3016 1369 3016 2328 
Q 3016 3291 2770 3770 
Q 2525 4250 2034 4250 
z
M 2034 4750 
Q 2819 4750 3233 4129 
Q 3647 3509 3647 2328 
Q 3647 1150 3233 529 
Q 2819 -91 2034 -91 
Q 1250 -91 836 529 
Q 422 1150 422 2328 
Q 422 3509 836 4129 
Q 1250 4750 2034 4750 
z
" transform="scale(0.015625)"/>
        <path id="DejaVuSans-31" d="M 794 531 
L 1825 531 
L 1825 4091 
L 703 3866 
L 703 4441 
L 1819 4666 
L 2450 4666 
L 2450 531 
L 3481 531 
L 3481 0 
L 794 0 
L 794 531 
z
" transform="scale(0.015625)"/>
       </defs>
       <use xlink:href="#DejaVuSans-32"/>
       <use xlink:href="#DejaVuSans-30" x="63.623047"/>
       <use xlink:href="#DejaVuSans-32" x="127.246094"/>
       <use xlink:href="#DejaVuSans-31" x="190.869141"/>
      </g>
     </g>
    </g>
    <g id="xtick_2">
     <g id="line2d_3">
      <path d="M 275.738182 378 
L 275.738182 51.84 
" clip-path="url(#pe1785795f5)" style="fill: none; stroke: #b0b0b0; stroke-width: 0.8; stroke-linecap: square"/>
     </g>
     <g id="line2d_4">
      <g>
       <use xlink:href="#mbee638881c" x="275.738182" y="378" style="stroke: #000000; stroke-width: 0.8"/>
      </g>
     </g>
     <g id="text_2">
      <!-- Feb -->
      <g transform="translate(266.886619 392.598437)scale(0.1 -0.1)">
       <defs>
        <path id="DejaVuSans-46" d="M 628 4666 
L 3309 4666 
L 3309 4134 
L 1259 4134 
L 1259 2759 
L 3109 2759 
L 3109 2228 
L 1259 2228 
L 1259 0 
L 628 0 
L 628 4666 
z
" transform="scale(0.015625)"/>
        <path id="DejaVuSans-65" d="M 3597 1894 
L 3597 1613 
L 953 1613 
Q 991 1019 1311 708 
Q 1631 397 2203 397 
Q 2534 397 2845 478 
Q 3156 559 3463 722 
L 3463 178 
Q 3153 47 2828 -22 
Q 2503 -91 2169 -91 
Q 1331 -91 842 396 
Q 353 884 353 1716 
Q 353 2575 817 3079 
Q 1281 3584 2069 3584 
Q 2775 3584 3186 3129 
Q 3597 2675 3597 1894 
z
M 3022 2063 
Q 3016 2534 2758 2815 
Q 2500 3097 2075 3097 
Q 1594 3097 1305 2825 
Q 1016 2553 972 2059 
L 3022 2063 
z
" transform="scale(0.015625)"/>
        <path id="DejaVuSans-62" d="M 3116 1747 
Q 3116 2381 2855 2742 
Q 2594 3103 2138 3103 
Q 1681 3103 1420 2742 
Q 1159 2381 1159 1747 
Q 1159 1113 1420 752 
Q 1681 391 2138 391 
Q 2594 391 2855 752 
Q 3116 1113 3116 1747 
z
M 1159 2969 
Q 1341 3281 1617 3432 
Q 1894 3584 2278 3584 
Q 2916 3584 3314 3078 
Q 3713 2572 3713 1747 
Q 3713 922 3314 415 
Q 2916 -91 2278 -91 
Q 1894 -91 1617 61 
Q 1341 213 1159 525 
L 1159 0 
L 581 0 
L 581 4863 
L 1159 4863 
L 1159 2969 
z
" transform="scale(0.015625)"/>
       </defs>
       <use xlink:href="#DejaVuSans-46"/>
       <use xlink:href="#DejaVuSans-65" x="52.019531"/>
       <use xlink:href="#DejaVuSans-62" x="113.542969"/>
      </g>
     </g>
    </g>
    <g id="xtick_3">
     <g id="line2d_5">
      <path d="M 427.243636 378 
L 427.243636 51.84 
" clip-path="url(#pe1785795f5)" style="fill: none; stroke: #b0b0b0; stroke-width: 0.8; stroke-linecap: square"/>
     </g>
     <g id="line2d_6">
      <g>
       <use xlink:href="#mbee638881c" x="427.243636" y="378" style="stroke: #000000; stroke-width: 0.8"/>
      </g>
     </g>
     <g id="text_3">
      <!-- Mar -->
      <g transform="translate(417.810043 392.598437)scale(0.1 -0.1)">
       <defs>
        <path id="DejaVuSans-4d" d="M 628 4666 
L 1569 4666 
L 2759 1491 
L 3956 4666 
L 4897 4666 
L 4897 0 
L 4281 0 
L 4281 4097 
L 3078 897 
L 2444 897 
L 1241 4097 
L 1241 0 
L 628 0 
L 628 4666 
z
" transform="scale(0.015625)"/>
        <path id="DejaVuSans-72" d="M 2631 2963 
Q 2534 3019 2420 3045 
Q 2306 3072 2169 3072 
Q 1681 3072 1420 2755 
Q 1159 2438 1159 1844 
L 1159 0 
L 581 0 
L 581 3500 
L 1159 3500 
L 1159 2956 
Q 1341 3275 1631 3429 
Q 1922 3584 2338 3584 
Q 2397 3584 2469 3576 
Q 2541 3569 2628 3553 
L 2631 2963 
z
" transform="scale(0.015625)"/>
       </defs>
       <use xlink:href="#DejaVuSans-4d"/>
       <use xlink:href="#DejaVuSans-61" x="86.279297"/>
       <use xlink:href="#DejaVuSans-72" x="147.558594"/>
      </g>
     </g>
    </g>
    <g id="xtick_4">
     <g id="line2d_7">
      <path d="M 594.981818 378 
L 594.981818 51.84 
" clip-path="url(#pe1785795f5)" style="fill: none; stroke: #b0b0b0; stroke-width: 0.8; stroke-linecap: square"/>
     </g>
     <g id="line2d_8">
      <g>
       <use xlink:href="#mbee638881c" x="594.981818" y="378" style="stroke: #000000; stroke-width: 0.8"/>
      </g>
     </g>
     <g id="text_4">
      <!-- Apr -->
      <g transform="translate(586.331818 392.598437)scale(0.1 -0.1)">
       <defs>
        <path id="DejaVuSans-41" d="M 2188 4044 
L 1331 1722 
L 3047 1722 
L 2188 4044 
z
M 1831 4666 
L 2547 4666 
L 4325 0 
L 3669 0 
L 3244 1197 
L 1141 1197 
L 716 0 
L 50 0 
L 1831 4666 
z
" transform="scale(0.015625)"/>
        <path id="DejaVuSans-70" d="M 1159 525 
L 1159 -1331 
L 581 -1331 
L 581 3500 
L 1159 3500 
L 1159 2969 
Q 1341 3281 1617 3432 
Q 1894 3584 2278 3584 
Q 2916 3584 3314 3078 
Q 3713 2572 3713 1747 
Q 3713 922 3314 415 
Q 2916 -91 2278 -91 
Q 1894 -91 1617 61 
Q 1341 213 1159 525 
z
M 3116 1747 
Q 3116 2381 2855 2742 
Q 2594 3103 2138 3103 
Q 1681 3103 1420 2742 
Q 1159 2381 1159 1747 
Q 1159 1113 1420 752 
Q 1681 391 2138 391 
Q 2594 391 2855 752 
Q 3116 1113 3116 1747 
z
" transform="scale(0.015625)"/>
       </defs>
       <use xlink:href="#DejaVuSans-41"/>
       <use xlink:href="#DejaVuSans-70" x="68.408203"/>
       <use xlink:href="#DejaVuSans-72" x="131.884766"/>
      </g>
     </g>
    </g>
    <g id="xtick_5">
     <g id="line2d_9">
      <path d="M 643.68 378 
L 643.68 51.84 
" clip-path="url(#pe1785795f5)" style="fill: none; stroke: #b0b0b0; stroke-width: 0.8; stroke-linecap: square"/>
     </g>
     <g id="line2d_10">
      <g>
       <use xlink:href="#mbee638881c" x="643.68" y="378" style="stroke: #000000; stroke-width: 0.8"/>
      </g>
     </g>
    </g>
    <g id="xtick_6">
     <g id="line2d_11">
      <defs>
       <path id="mad2ba705fa" d="M 0 0 
L 0 2 
" style="stroke: #000000; stroke-width: 0.6"/>
      </defs>
      <g>
       <use xlink:href="#mad2ba705fa" x="124.232727" y="378" style="stroke: #000000; stroke-width: 0.6"/>
      </g>
     </g>
    </g>
    <g id="xtick_7">
     <g id="line2d_12">
      <g>
       <use xlink:href="#mad2ba705fa" x="162.109091" y="378" style="stroke: #000000; stroke-width: 0.6"/>
      </g>
     </g>
    </g>
    <g id="xtick_8">
     <g id="line2d_13">
      <g>
       <use xlink:href="#mad2ba705fa" x="199.985455" y="378" style="stroke: #000000; stroke-width: 0.6"/>
      </g>
     </g>
    </g>
    <g id="xtick_9">
     <g id="line2d_14">
      <g>
       <use xlink:href="#mad2ba705fa" x="237.861818" y="378" style="stroke: #000000; stroke-width: 0.6"/>
      </g>
     </g>
    </g>
    <g id="xtick_10">
     <g id="line2d_15">
      <g>
       <use xlink:href="#mad2ba705fa" x="313.614545" y="378" style="stroke: #000000; stroke-width: 0.6"/>
      </g>
     </g>
    </g>
    <g id="xtick_11">
     <g id="line2d_16">
      <g>
       <use xlink:href="#mad2ba705fa" x="351.490909" y="378" style="stroke: #000000; stroke-width: 0.6"/>
      </g>
     </g>
    </g>
    <g id="xtick_12">
     <g id="line2d_17">
      <g>
       <use xlink:href="#mad2ba705fa" x="389.367273" y="378" style="stroke: #000000; stroke-width: 0.6"/>
      </g>
     </g>
    </g>
    <g id="xtick_13">
     <g id="line2d_18">
      <g>
       <use xlink:href="#mad2ba705fa" x="465.12" y="378" style="stroke: #000000; stroke-width: 0.6"/>
      </g>
     </g>
    </g>
    <g id="xtick_14">
     <g id="line2d_19">
      <g>
       <use xlink:href="#mad2ba705fa" x="502.996364" y="378" style="stroke: #000000; stroke-width: 0.6"/>
      </g>
     </g>
    </g>
    <g id="xtick_15">
     <g id="line2d_20">
      <g>
       <use xlink:href="#mad2ba705fa" x="540.872727" y="378" style="stroke: #000000; stroke-width: 0.6"/>
      </g>
     </g>
    </g>
    <g id="xtick_16">
     <g id="line2d_21">
      <g>
       <use xlink:href="#mad2ba705fa" x="578.749091" y="378" style="stroke: #000000; stroke-width: 0.6"/>
      </g>
     </g>
    </g>
    <g id="xtick_17">
     <g id="line2d_22">
      <g>
       <use xlink:href="#mad2ba705fa" x="616.625455" y="378" style="stroke: #000000; stroke-width: 0.6"/>
      </g>
     </g>
    </g>
   </g>
   <g id="matplotlib.axis_2">
    <g id="ytick_1">
     <g id="line2d_23">
      <path d="M 108 360.29919 
L 643.68 360.29919 
" clip-path="url(#pe1785795f5)" style="fill: none; stroke: #b0b0b0; stroke-width: 0.8; stroke-linecap: square"/>
     </g>
     <g id="line2d_24">
      <defs>
       <path id="mc6961f6d38" d="M 0 0 
L -3.5 0 
" style="stroke: #000000; stroke-width: 0.8"/>
      </defs>
      <g>
       <use xlink:href="#mc6961f6d38" x="108" y="360.29919" style="stroke: #000000; stroke-width: 0.8"/>
      </g>
     </g>
     <g id="text_5">
      <!-- 0 -->
      <g transform="translate(94.6375 364.098409)scale(0.1 -0.1)">
       <use xlink:href="#DejaVuSans-30"/>
      </g>
     </g>
    </g>
    <g id="ytick_2">
     <g id="line2d_25">
      <path d="M 108 302.310281 
L 643.68 302.310281 
" clip-path="url(#pe1785795f5)" style="fill: none; stroke: #b0b0b0; stroke-width: 0.8; stroke-linecap: square"/>
     </g>
     <g id="line2d_26">
      <g>
       <use xlink:href="#mc6961f6d38" x="108" y="302.310281" style="stroke: #000000; stroke-width: 0.8"/>
      </g>
     </g>
     <g id="text_6">
      <!-- 2 -->
      <g transform="translate(94.6375 306.109499)scale(0.1 -0.1)">
       <use xlink:href="#DejaVuSans-32"/>
      </g>
     </g>
    </g>
    <g id="ytick_3">
     <g id="line2d_27">
      <path d="M 108 244.321371 
L 643.68 244.321371 
" clip-path="url(#pe1785795f5)" style="fill: none; stroke: #b0b0b0; stroke-width: 0.8; stroke-linecap: square"/>
     </g>
     <g id="line2d_28">
      <g>
       <use xlink:href="#mc6961f6d38" x="108" y="244.321371" style="stroke: #000000; stroke-width: 0.8"/>
      </g>
     </g>
     <g id="text_7">
      <!-- 4 -->
      <g transform="translate(94.6375 248.120589)scale(0.1 -0.1)">
       <defs>
        <path id="DejaVuSans-34" d="M 2419 4116 
L 825 1625 
L 2419 1625 
L 2419 4116 
z
M 2253 4666 
L 3047 4666 
L 3047 1625 
L 3713 1625 
L 3713 1100 
L 3047 1100 
L 3047 0 
L 2419 0 
L 2419 1100 
L 313 1100 
L 313 1709 
L 2253 4666 
z
" transform="scale(0.015625)"/>
       </defs>
       <use xlink:href="#DejaVuSans-34"/>
      </g>
     </g>
    </g>
    <g id="ytick_4">
     <g id="line2d_29">
      <path d="M 108 186.332461 
L 643.68 186.332461 
" clip-path="url(#pe1785795f5)" style="fill: none; stroke: #b0b0b0; stroke-width: 0.8; stroke-linecap: square"/>
     </g>
     <g id="line2d_30">
      <g>
       <use xlink:href="#mc6961f6d38" x="108" y="186.332461" style="stroke: #000000; stroke-width: 0.8"/>
      </g>
     </g>
     <g id="text_8">
      <!-- 6 -->
      <g transform="translate(94.6375 190.13168)scale(0.1 -0.1)">
       <defs>
        <path id="DejaVuSans-36" d="M 2113 2584 
Q 1688 2584 1439 2293 
Q 1191 2003 1191 1497 
Q 1191 994 1439 701 
Q 1688 409 2113 409 
Q 2538 409 2786 701 
Q 3034 994 3034 1497 
Q 3034 2003 2786 2293 
Q 2538 2584 2113 2584 
z
M 3366 4563 
L 3366 3988 
Q 3128 4100 2886 4159 
Q 2644 4219 2406 4219 
Q 1781 4219 1451 3797 
Q 1122 3375 1075 2522 
Q 1259 2794 1537 2939 
Q 1816 3084 2150 3084 
Q 2853 3084 3261 2657 
Q 3669 2231 3669 1497 
Q 3669 778 3244 343 
Q 2819 -91 2113 -91 
Q 1303 -91 875 529 
Q 447 1150 447 2328 
Q 447 3434 972 4092 
Q 1497 4750 2381 4750 
Q 2619 4750 2861 4703 
Q 3103 4656 3366 4563 
z
" transform="scale(0.015625)"/>
       </defs>
       <use xlink:href="#DejaVuSans-36"/>
      </g>
     </g>
    </g>
    <g id="ytick_5">
     <g id="line2d_31">
      <path d="M 108 128.343551 
L 643.68 128.343551 
" clip-path="url(#pe1785795f5)" style="fill: none; stroke: #b0b0b0; stroke-width: 0.8; stroke-linecap: square"/>
     </g>
     <g id="line2d_32">
      <g>
       <use xlink:href="#mc6961f6d38" x="108" y="128.343551" style="stroke: #000000; stroke-width: 0.8"/>
      </g>
     </g>
     <g id="text_9">
      <!-- 8 -->
      <g transform="translate(94.6375 132.14277)scale(0.1 -0.1)">
       <defs>
        <path id="DejaVuSans-38" d="M 2034 2216 
Q 1584 2216 1326 1975 
Q 1069 1734 1069 1313 
Q 1069 891 1326 650 
Q 1584 409 2034 409 
Q 2484 409 2743 651 
Q 3003 894 3003 1313 
Q 3003 1734 2745 1975 
Q 2488 2216 2034 2216 
z
M 1403 2484 
Q 997 2584 770 2862 
Q 544 3141 544 3541 
Q 544 4100 942 4425 
Q 1341 4750 2034 4750 
Q 2731 4750 3128 4425 
Q 3525 4100 3525 3541 
Q 3525 3141 3298 2862 
Q 3072 2584 2669 2484 
Q 3125 2378 3379 2068 
Q 3634 1759 3634 1313 
Q 3634 634 3220 271 
Q 2806 -91 2034 -91 
Q 1263 -91 848 271 
Q 434 634 434 1313 
Q 434 1759 690 2068 
Q 947 2378 1403 2484 
z
M 1172 3481 
Q 1172 3119 1398 2916 
Q 1625 2713 2034 2713 
Q 2441 2713 2670 2916 
Q 2900 3119 2900 3481 
Q 2900 3844 2670 4047 
Q 2441 4250 2034 4250 
Q 1625 4250 1398 4047 
Q 1172 3844 1172 3481 
z
" transform="scale(0.015625)"/>
       </defs>
       <use xlink:href="#DejaVuSans-38"/>
      </g>
     </g>
    </g>
    <g id="ytick_6">
     <g id="line2d_33">
      <path d="M 108 70.354641 
L 643.68 70.354641 
" clip-path="url(#pe1785795f5)" style="fill: none; stroke: #b0b0b0; stroke-width: 0.8; stroke-linecap: square"/>
     </g>
     <g id="line2d_34">
      <g>
       <use xlink:href="#mc6961f6d38" x="108" y="70.354641" style="stroke: #000000; stroke-width: 0.8"/>
      </g>
     </g>
     <g id="text_10">
      <!-- 10 -->
      <g transform="translate(88.275 74.15386)scale(0.1 -0.1)">
       <use xlink:href="#DejaVuSans-31"/>
       <use xlink:href="#DejaVuSans-30" x="63.623047"/>
      </g>
     </g>
    </g>
   </g>
   <g id="line2d_35">
    <path d="M 108 350.877306 
L 113.410909 360.496227 
L 118.821818 342.522397 
L 124.232727 348.082087 
L 129.643636 342.129027 
L 135.054545 359.087804 
L 140.465455 353.072746 
L 145.876364 340.849362 
L 151.287273 351.984184 
L 156.698182 338.392911 
L 162.109091 342.479251 
L 167.52 349.716189 
L 172.930909 338.642649 
L 178.341818 342.272818 
L 183.752727 357.0767 
L 189.163636 347.402788 
L 194.574545 362.333624 
L 199.985455 343.535815 
L 205.396364 358.036951 
L 210.807273 336.974875 
L 216.218182 341.38037 
L 221.629091 345.588028 
L 227.04 363.174545 
L 232.450909 343.863599 
L 237.861818 350.384603 
L 243.272727 351.257726 
L 248.683636 335.703879 
L 254.094545 337.2039 
L 259.505455 341.39172 
L 264.916364 344.478426 
L 270.327273 351.827232 
L 275.738182 360.260877 
L 281.149091 352.712638 
L 286.56 350.044532 
L 291.970909 348.35077 
L 297.381818 358.836123 
L 302.792727 357.667733 
L 308.203636 340.684472 
L 313.614545 355.388532 
L 319.025455 341.69591 
L 324.436364 339.407446 
L 329.847273 339.925564 
L 335.258182 353.989072 
L 340.669091 362.493099 
L 346.08 344.876227 
L 351.490909 338.926085 
L 356.901818 359.892333 
L 362.312727 335.448738 
L 367.723636 359.888865 
L 373.134545 348.698601 
L 378.545455 361.878549 
L 383.956364 361.642543 
L 389.367273 336.002747 
L 394.778182 362.444954 
L 400.189091 347.442705 
L 405.6 348.97659 
L 411.010909 347.252382 
L 416.421818 341.492511 
L 421.832727 338.256512 
L 427.243636 351.17793 
L 432.654545 352.107817 
L 438.065455 362.378923 
L 443.476364 359.503176 
L 448.887273 361.961111 
L 454.298182 361.984597 
L 459.709091 349.491496 
L 465.12 342.480257 
L 470.530909 356.934936 
L 475.941818 350.625861 
L 481.352727 358.301848 
L 486.763636 340.35659 
L 492.174545 353.626171 
L 497.585455 358.191014 
L 502.996364 359.828439 
L 508.407273 351.762346 
L 513.818182 349.061628 
L 519.229091 348.369163 
L 524.64 345.833945 
L 530.050909 362.369499 
L 535.461818 340.724558 
L 540.872727 342.747526 
L 546.283636 357.686425 
L 551.694545 334.397065 
L 557.105455 338.659031 
L 562.516364 339.884479 
L 567.927273 358.299105 
L 573.338182 344.309124 
L 578.749091 355.149831 
L 584.16 356.53208 
L 589.570909 355.699787 
L 594.981818 360.316144 
L 600.392727 337.290686 
L 605.803636 357.022038 
L 611.214545 350.97395 
L 616.625455 335.308921 
L 622.036364 347.785641 
L 627.447273 362.916202 
L 632.858182 342.662822 
L 638.269091 334.743432 
L 643.68 345.783286 
" clip-path="url(#pe1785795f5)" style="fill: none; stroke: #1f77b4; stroke-width: 1.5; stroke-linecap: square"/>
   </g>
   <g id="line2d_36">
    <path d="M 108 323.217499 
L 113.410909 334.641539 
L 118.821818 337.219529 
L 124.232727 324.267009 
L 129.643636 333.628807 
L 135.054545 334.654963 
L 140.465455 338.108858 
L 145.876364 337.036396 
L 151.287273 339.466524 
L 156.698182 310.087295 
L 162.109091 335.016086 
L 167.52 343.095044 
L 172.930909 319.139345 
L 178.341818 326.493478 
L 183.752727 330.73432 
L 189.163636 328.49816 
L 194.574545 343.790459 
L 199.985455 333.118823 
L 205.396364 345.887517 
L 210.807273 335.458158 
L 216.218182 328.91531 
L 221.629091 327.863181 
L 227.04 349.376497 
L 232.450909 325.16165 
L 237.861818 321.428142 
L 243.272727 331.394533 
L 248.683636 317.347385 
L 254.094545 322.456845 
L 259.505455 321.552317 
L 264.916364 321.167737 
L 270.327273 344.321438 
L 275.738182 348.65839 
L 281.149091 330.558932 
L 286.56 337.787498 
L 291.970909 327.226591 
L 297.381818 341.011988 
L 302.792727 338.52506 
L 308.203636 338.744749 
L 313.614545 337.943918 
L 319.025455 340.800817 
L 324.436364 323.154348 
L 329.847273 313.168143 
L 335.258182 329.142864 
L 340.669091 343.821265 
L 346.08 334.763774 
L 351.490909 328.082298 
L 356.901818 345.938022 
L 362.312727 329.045669 
L 367.723636 343.481517 
L 373.134545 330.66364 
L 378.545455 339.068511 
L 383.956364 334.552583 
L 389.367273 320.693014 
L 394.778182 342.739589 
L 400.189091 325.300583 
L 405.6 336.700206 
L 411.010909 321.888413 
L 416.421818 314.836671 
L 421.832727 335.244475 
L 427.243636 331.579307 
L 432.654545 338.19227 
L 438.065455 343.420485 
L 443.476364 352.638521 
L 448.887273 358.489735 
L 454.298182 352.221857 
L 459.709091 320.65943 
L 465.12 329.868512 
L 470.530909 331.895671 
L 475.941818 323.118787 
L 481.352727 342.542341 
L 486.763636 336.438631 
L 492.174545 329.751052 
L 497.585455 356.12153 
L 502.996364 358.429488 
L 508.407273 332.130878 
L 513.818182 340.414399 
L 519.229091 327.4506 
L 524.64 331.023656 
L 530.050909 350.907199 
L 535.461818 320.718372 
L 540.872727 325.150094 
L 546.283636 342.696469 
L 551.694545 311.322717 
L 557.105455 316.2317 
L 562.516364 312.808377 
L 567.927273 338.581188 
L 573.338182 336.359466 
L 578.749091 346.215271 
L 584.16 344.877563 
L 589.570909 336.328412 
L 594.981818 351.34302 
L 600.392727 330.078896 
L 605.803636 354.195971 
L 611.214545 349.908333 
L 616.625455 331.383227 
L 622.036364 324.735164 
L 627.447273 337.709549 
L 632.858182 322.411055 
L 638.269091 310.174004 
L 643.68 327.774374 
" clip-path="url(#pe1785795f5)" style="fill: none; stroke: #ff7f0e; stroke-width: 1.5; stroke-linecap: square"/>
   </g>
   <g id="line2d_37">
    <path d="M 108 320.565579 
L 113.410909 317.098585 
L 118.821818 330.816834 
L 124.232727 312.616101 
L 129.643636 331.130494 
L 135.054545 323.875258 
L 140.465455 326.607022 
L 145.876364 329.710237 
L 151.287273 336.313973 
L 156.698182 303.984881 
L 162.109091 307.375109 
L 167.52 316.564498 
L 172.930909 307.717564 
L 178.341818 307.397774 
L 183.752727 329.628867 
L 189.163636 323.759784 
L 194.574545 342.374395 
L 199.985455 318.220903 
L 205.396364 332.102493 
L 210.807273 316.585403 
L 216.218182 306.914201 
L 221.629091 317.105605 
L 227.04 339.294182 
L 232.450909 305.359998 
L 237.861818 304.735838 
L 243.272727 325.227101 
L 248.683636 313.732846 
L 254.094545 296.635688 
L 259.505455 307.474175 
L 264.916364 295.533261 
L 270.327273 343.70174 
L 275.738182 340.604618 
L 281.149091 311.567827 
L 286.56 310.113375 
L 291.970909 320.68206 
L 297.381818 338.802873 
L 302.792727 330.699708 
L 308.203636 333.871328 
L 313.614545 329.882408 
L 319.025455 328.245476 
L 324.436364 306.803553 
L 329.847273 310.770779 
L 335.258182 315.859695 
L 340.669091 327.958178 
L 346.08 333.869933 
L 351.490909 315.540585 
L 356.901818 319.426129 
L 362.312727 303.686359 
L 367.723636 323.377661 
L 373.134545 323.250187 
L 378.545455 331.789862 
L 383.956364 324.904948 
L 389.367273 293.301985 
L 394.778182 331.293954 
L 400.189091 312.142377 
L 405.6 313.313542 
L 411.010909 294.311894 
L 416.421818 303.82668 
L 421.832727 316.935833 
L 427.243636 313.045219 
L 432.654545 317.24987 
L 438.065455 315.982762 
L 443.476364 340.808894 
L 448.887273 338.474889 
L 454.298182 347.693447 
L 459.709091 307.450231 
L 465.12 322.319758 
L 470.530909 303.004133 
L 475.941818 318.109343 
L 481.352727 337.530589 
L 486.763636 323.277499 
L 492.174545 316.633644 
L 497.585455 353.400728 
L 502.996364 347.36055 
L 508.407273 315.79728 
L 513.818182 332.948038 
L 519.229091 312.168952 
L 524.64 319.128981 
L 530.050909 330.254166 
L 535.461818 306.884117 
L 540.872727 297.537573 
L 546.283636 336.671675 
L 551.694545 298.698242 
L 557.105455 301.660085 
L 562.516364 300.466783 
L 567.927273 337.863914 
L 573.338182 329.822382 
L 578.749091 344.116217 
L 584.16 332.175887 
L 589.570909 323.263969 
L 594.981818 343.074857 
L 600.392727 307.627562 
L 605.803636 327.462806 
L 611.214545 343.774841 
L 616.625455 329.672387 
L 622.036364 319.660205 
L 627.447273 331.955501 
L 632.858182 313.099162 
L 638.269091 303.146068 
L 643.68 313.042247 
" clip-path="url(#pe1785795f5)" style="fill: none; stroke: #2ca02c; stroke-width: 1.5; stroke-linecap: square"/>
   </g>
   <g id="line2d_38">
    <path d="M 108 301.250498 
L 113.410909 309.270365 
L 118.821818 301.824308 
L 124.232727 287.510673 
L 129.643636 320.879018 
L 135.054545 323.029303 
L 140.465455 311.249593 
L 145.876364 308.544332 
L 151.287273 317.456485 
L 156.698182 303.606849 
L 162.109091 298.435614 
L 167.52 307.080201 
L 172.930909 299.431198 
L 178.341818 307.376568 
L 183.752727 314.451326 
L 189.163636 308.199441 
L 194.574545 319.406778 
L 199.985455 298.57956 
L 205.396364 303.152737 
L 210.807273 301.084789 
L 216.218182 283.896945 
L 221.629091 312.867566 
L 227.04 335.825063 
L 232.450909 278.842654 
L 237.861818 299.989461 
L 243.272727 313.940743 
L 248.683636 290.633812 
L 254.094545 295.411001 
L 259.505455 286.333974 
L 264.916364 292.762437 
L 270.327273 335.530922 
L 275.738182 332.378413 
L 281.149091 307.868935 
L 286.56 303.859303 
L 291.970909 304.61749 
L 297.381818 336.897646 
L 302.792727 306.823076 
L 308.203636 315.031149 
L 313.614545 311.842039 
L 319.025455 306.635772 
L 324.436364 283.71804 
L 329.847273 287.24513 
L 335.258182 297.486016 
L 340.669091 305.167624 
L 346.08 318.936191 
L 351.490909 293.674303 
L 356.901818 305.737579 
L 362.312727 295.175094 
L 367.723636 295.655113 
L 373.134545 302.635238 
L 378.545455 320.740634 
L 383.956364 303.146634 
L 389.367273 271.932729 
L 394.778182 329.94959 
L 400.189091 300.078156 
L 405.6 304.564092 
L 411.010909 271.153419 
L 416.421818 278.541599 
L 421.832727 309.842829 
L 427.243636 300.524202 
L 432.654545 308.637823 
L 438.065455 315.115735 
L 443.476364 318.844284 
L 448.887273 317.124396 
L 454.298182 328.128873 
L 459.709091 283.139296 
L 465.12 309.942432 
L 470.530909 283.578623 
L 475.941818 305.940256 
L 481.352727 312.79687 
L 486.763636 314.458466 
L 492.174545 310.20938 
L 497.585455 333.079575 
L 502.996364 320.998757 
L 508.407273 304.490103 
L 513.818182 321.676364 
L 519.229091 289.072213 
L 524.64 315.8931 
L 530.050909 309.826394 
L 535.461818 295.815974 
L 540.872727 278.837444 
L 546.283636 315.273805 
L 551.694545 292.128112 
L 557.105455 290.703396 
L 562.516364 295.718194 
L 567.927273 320.988302 
L 573.338182 303.698866 
L 578.749091 316.492683 
L 584.16 317.159805 
L 589.570909 296.67127 
L 594.981818 319.261223 
L 600.392727 302.773407 
L 605.803636 317.946599 
L 611.214545 328.238886 
L 616.625455 310.017615 
L 622.036364 309.980792 
L 627.447273 303.233717 
L 632.858182 299.658402 
L 638.269091 277.942558 
L 643.68 288.298187 
" clip-path="url(#pe1785795f5)" style="fill: none; stroke: #d62728; stroke-width: 1.5; stroke-linecap: square"/>
   </g>
   <g id="line2d_39">
    <path d="M 108 293.393806 
L 113.410909 308.299875 
L 118.821818 278.993309 
L 124.232727 258.731284 
L 129.643636 320.489789 
L 135.054545 302.470966 
L 140.465455 304.181184 
L 145.876364 305.271688 
L 151.287273 310.778919 
L 156.698182 278.210998 
L 162.109091 297.80519 
L 167.52 302.726862 
L 172.930909 285.473715 
L 178.341818 282.944715 
L 183.752727 313.523258 
L 189.163636 282.50891 
L 194.574545 314.648494 
L 199.985455 287.360178 
L 205.396364 298.772028 
L 210.807273 295.805123 
L 216.218182 271.888263 
L 221.629091 285.181825 
L 227.04 312.047685 
L 232.450909 278.627171 
L 237.861818 288.682744 
L 243.272727 287.076018 
L 248.683636 282.424078 
L 254.094545 278.111657 
L 259.505455 282.578004 
L 264.916364 276.918032 
L 270.327273 308.960426 
L 275.738182 311.186893 
L 281.149091 281.956138 
L 286.56 286.082657 
L 291.970909 280.827462 
L 297.381818 330.6219 
L 302.792727 295.759748 
L 308.203636 294.232337 
L 313.614545 291.183887 
L 319.025455 288.155637 
L 324.436364 267.555124 
L 329.847273 266.963872 
L 335.258182 290.803972 
L 340.669091 301.807872 
L 346.08 315.229745 
L 351.490909 291.911718 
L 356.901818 301.561666 
L 362.312727 286.658464 
L 367.723636 281.823545 
L 373.134545 278.325873 
L 378.545455 302.181214 
L 383.956364 280.796016 
L 389.367273 271.0171 
L 394.778182 303.76206 
L 400.189091 271.224734 
L 405.6 280.157912 
L 411.010909 265.938764 
L 416.421818 259.536223 
L 421.832727 305.288469 
L 427.243636 288.234928 
L 432.654545 287.725755 
L 438.065455 302.918735 
L 443.476364 297.563671 
L 448.887273 316.824556 
L 454.298182 319.708058 
L 459.709091 278.597256 
L 465.12 305.162928 
L 470.530909 283.180217 
L 475.941818 294.872187 
L 481.352727 284.583399 
L 486.763636 311.717372 
L 492.174545 299.116604 
L 497.585455 312.989363 
L 502.996364 317.738972 
L 508.407273 278.654689 
L 513.818182 303.059654 
L 519.229091 275.966993 
L 524.64 314.876036 
L 530.050909 301.81218 
L 535.461818 279.131264 
L 540.872727 262.100924 
L 546.283636 287.261088 
L 551.694545 266.590567 
L 557.105455 271.776235 
L 562.516364 287.667025 
L 567.927273 313.351078 
L 573.338182 286.169025 
L 578.749091 315.568232 
L 584.16 316.071568 
L 589.570909 296.544286 
L 594.981818 304.448724 
L 600.392727 287.645527 
L 605.803636 298.617703 
L 611.214545 315.986934 
L 616.625455 305.556501 
L 622.036364 301.552347 
L 627.447273 276.107302 
L 632.858182 277.010859 
L 638.269091 265.363891 
L 643.68 270.694094 
" clip-path="url(#pe1785795f5)" style="fill: none; stroke: #9467bd; stroke-width: 1.5; stroke-linecap: square"/>
   </g>
   <g id="line2d_40">
    <path d="M 108 273.209881 
L 113.410909 280.276257 
L 118.821818 254.548271 
L 124.232727 232.687947 
L 129.643636 315.58127 
L 135.054545 276.290928 
L 140.465455 301.049821 
L 145.876364 303.983212 
L 151.287273 295.005225 
L 156.698182 266.672212 
L 162.109091 282.893693 
L 167.52 287.573241 
L 172.930909 280.647255 
L 178.341818 268.809656 
L 183.752727 285.762196 
L 189.163636 267.552476 
L 194.574545 294.55365 
L 199.985455 269.211857 
L 205.396364 284.498342 
L 210.807273 289.573289 
L 216.218182 268.101376 
L 221.629091 270.764049 
L 227.04 285.650605 
L 232.450909 270.480229 
L 237.861818 272.169363 
L 243.272727 281.608056 
L 248.683636 269.797548 
L 254.094545 260.687452 
L 259.505455 271.774086 
L 264.916364 254.217856 
L 270.327273 281.065934 
L 275.738182 296.093659 
L 281.149091 254.958588 
L 286.56 285.940414 
L 291.970909 272.089543 
L 297.381818 303.787922 
L 302.792727 283.292214 
L 308.203636 268.664413 
L 313.614545 284.783296 
L 319.025455 281.814692 
L 324.436364 261.485158 
L 329.847273 265.912476 
L 335.258182 263.999235 
L 340.669091 280.025561 
L 346.08 293.141618 
L 351.490909 276.947768 
L 356.901818 279.401891 
L 362.312727 265.861868 
L 367.723636 277.383237 
L 373.134545 255.051193 
L 378.545455 297.283133 
L 383.956364 270.542347 
L 389.367273 259.162072 
L 394.778182 301.9067 
L 400.189091 245.11853 
L 405.6 257.507125 
L 411.010909 257.591117 
L 416.421818 239.103934 
L 421.832727 298.717502 
L 427.243636 285.244632 
L 432.654545 259.178253 
L 438.065455 298.156701 
L 443.476364 272.35552 
L 448.887273 302.005787 
L 454.298182 318.613986 
L 459.709091 277.531424 
L 465.12 287.329037 
L 470.530909 268.039398 
L 475.941818 288.21184 
L 481.352727 276.86858 
L 486.763636 310.107006 
L 492.174545 281.977442 
L 497.585455 299.09675 
L 502.996364 310.640776 
L 508.407273 276.289817 
L 513.818182 287.566187 
L 519.229091 262.199876 
L 524.64 293.757112 
L 530.050909 280.629685 
L 535.461818 263.903188 
L 540.872727 239.735515 
L 546.283636 264.726047 
L 551.694545 246.236447 
L 557.105455 248.718275 
L 562.516364 279.169501 
L 567.927273 312.361361 
L 573.338182 264.724674 
L 578.749091 312.738635 
L 584.16 299.409035 
L 589.570909 271.267182 
L 594.981818 294.304133 
L 600.392727 264.081998 
L 605.803636 276.25117 
L 611.214545 308.603177 
L 616.625455 303.731706 
L 622.036364 282.163496 
L 627.447273 271.607366 
L 632.858182 272.893171 
L 638.269091 258.673738 
L 643.68 262.865594 
" clip-path="url(#pe1785795f5)" style="fill: none; stroke: #8c564b; stroke-width: 1.5; stroke-linecap: square"/>
   </g>
   <g id="line2d_41">
    <path d="M 108 257.223327 
L 113.410909 269.77848 
L 118.821818 253.785547 
L 124.232727 221.859956 
L 129.643636 290.433184 
L 135.054545 264.878746 
L 140.465455 285.743871 
L 145.876364 288.476403 
L 151.287273 278.509512 
L 156.698182 256.812635 
L 162.109091 273.723278 
L 167.52 267.166128 
L 172.930909 272.322646 
L 178.341818 256.194993 
L 183.752727 263.219615 
L 189.163636 251.62181 
L 194.574545 267.136055 
L 199.985455 259.70444 
L 205.396364 270.418645 
L 210.807273 262.292276 
L 216.218182 262.966635 
L 221.629091 242.344314 
L 227.04 260.553089 
L 232.450909 248.545098 
L 237.861818 263.171082 
L 243.272727 267.89081 
L 248.683636 257.853142 
L 254.094545 255.054432 
L 259.505455 263.801603 
L 264.916364 247.932505 
L 270.327273 269.336025 
L 275.738182 268.097184 
L 281.149091 252.160348 
L 286.56 274.253176 
L 291.970909 243.190198 
L 297.381818 277.628491 
L 302.792727 278.970129 
L 308.203636 263.358378 
L 313.614545 265.563569 
L 319.025455 263.754148 
L 324.436364 232.956729 
L 329.847273 253.599126 
L 335.258182 251.884485 
L 340.669091 272.994248 
L 346.08 279.200513 
L 351.490909 253.143828 
L 356.901818 275.091448 
L 362.312727 251.466485 
L 367.723636 256.558184 
L 373.134545 252.662512 
L 378.545455 290.036832 
L 383.956364 263.162984 
L 389.367273 246.362373 
L 394.778182 276.791825 
L 400.189091 228.489562 
L 405.6 236.693292 
L 411.010909 243.426192 
L 416.421818 232.5328 
L 421.832727 277.472646 
L 427.243636 276.168685 
L 432.654545 237.302963 
L 438.065455 269.189165 
L 443.476364 260.832808 
L 448.887273 289.600159 
L 454.298182 303.696679 
L 459.709091 259.470679 
L 465.12 268.801304 
L 470.530909 248.705547 
L 475.941818 272.343971 
L 481.352727 250.233578 
L 486.763636 297.200666 
L 492.174545 272.698581 
L 497.585455 289.429372 
L 502.996364 294.955512 
L 508.407273 248.505975 
L 513.818182 283.331823 
L 519.229091 259.947415 
L 524.64 278.420405 
L 530.050909 278.933682 
L 535.461818 244.01303 
L 540.872727 219.754562 
L 546.283636 252.689831 
L 551.694545 236.122369 
L 557.105455 233.479162 
L 562.516364 261.177489 
L 567.927273 292.190675 
L 573.338182 255.923732 
L 578.749091 287.495504 
L 584.16 273.370176 
L 589.570909 244.750336 
L 594.981818 291.231146 
L 600.392727 262.786187 
L 605.803636 259.593838 
L 611.214545 285.90509 
L 616.625455 288.016429 
L 622.036364 276.022991 
L 627.447273 258.439159 
L 632.858182 270.598132 
L 638.269091 234.661628 
L 643.68 248.944019 
" clip-path="url(#pe1785795f5)" style="fill: none; stroke: #e377c2; stroke-width: 1.5; stroke-linecap: square"/>
   </g>
   <g id="line2d_42">
    <path d="M 108 239.477018 
L 113.410909 264.28108 
L 118.821818 251.149203 
L 124.232727 217.919303 
L 129.643636 272.727741 
L 135.054545 251.91975 
L 140.465455 264.205726 
L 145.876364 288.468805 
L 151.287273 267.570018 
L 156.698182 236.914309 
L 162.109091 249.032224 
L 167.52 247.613257 
L 172.930909 250.755576 
L 178.341818 249.230557 
L 183.752727 234.878932 
L 189.163636 239.002516 
L 194.574545 265.887025 
L 199.985455 233.761994 
L 205.396364 263.742923 
L 210.807273 248.76563 
L 216.218182 258.114051 
L 221.629091 217.56075 
L 227.04 252.402943 
L 232.450909 243.946856 
L 237.861818 242.935801 
L 243.272727 238.942125 
L 248.683636 239.481258 
L 254.094545 240.325881 
L 259.505455 248.159586 
L 264.916364 222.06664 
L 270.327273 266.332344 
L 275.738182 247.594193 
L 281.149091 235.137448 
L 286.56 257.114174 
L 291.970909 222.751078 
L 297.381818 264.394212 
L 302.792727 255.525313 
L 308.203636 247.802143 
L 313.614545 239.00451 
L 319.025455 254.416522 
L 324.436364 230.628219 
L 329.847273 239.922485 
L 335.258182 229.750615 
L 340.669091 260.82197 
L 346.08 275.213408 
L 351.490909 242.550887 
L 356.901818 269.54275 
L 362.312727 234.614191 
L 367.723636 253.651745 
L 373.134545 226.106539 
L 378.545455 265.594689 
L 383.956364 240.175609 
L 389.367273 242.920808 
L 394.778182 259.31862 
L 400.189091 213.422537 
L 405.6 226.663666 
L 411.010909 242.105116 
L 416.421818 206.968124 
L 421.832727 255.829517 
L 427.243636 261.745822 
L 432.654545 236.151552 
L 438.065455 249.511054 
L 443.476364 232.253348 
L 448.887273 270.856012 
L 454.298182 282.092281 
L 459.709091 244.612819 
L 465.12 266.985372 
L 470.530909 233.93334 
L 475.941818 257.982014 
L 481.352727 229.834712 
L 486.763636 281.41392 
L 492.174545 249.887362 
L 497.585455 287.350627 
L 502.996364 290.319981 
L 508.407273 247.777293 
L 513.818182 258.704453 
L 519.229091 252.303021 
L 524.64 257.831331 
L 530.050909 252.752994 
L 535.461818 233.10889 
L 540.872727 195.638217 
L 546.283636 247.718637 
L 551.694545 214.458297 
L 557.105455 210.205485 
L 562.516364 234.003699 
L 567.927273 273.975105 
L 573.338182 228.074967 
L 578.749091 279.113064 
L 584.16 245.609012 
L 589.570909 235.12048 
L 594.981818 267.323307 
L 600.392727 250.233368 
L 605.803636 242.352475 
L 611.214545 271.562303 
L 616.625455 266.632566 
L 622.036364 254.495195 
L 627.447273 249.011981 
L 632.858182 243.812447 
L 638.269091 219.323967 
L 643.68 227.782572 
" clip-path="url(#pe1785795f5)" style="fill: none; stroke: #7f7f7f; stroke-width: 1.5; stroke-linecap: square"/>
   </g>
   <g id="line2d_43">
    <path d="M 108 211.761106 
L 113.410909 239.90999 
L 118.821818 245.781691 
L 124.232727 200.643849 
L 129.643636 246.488024 
L 135.054545 232.939268 
L 140.465455 252.992514 
L 145.876364 268.547812 
L 151.287273 256.962062 
L 156.698182 217.979306 
L 162.109091 240.686866 
L 167.52 245.989207 
L 172.930909 250.593534 
L 178.341818 227.873046 
L 183.752727 222.60291 
L 189.163636 223.854009 
L 194.574545 249.943408 
L 199.985455 228.178356 
L 205.396364 254.523188 
L 210.807273 229.663574 
L 216.218182 237.839179 
L 221.629091 206.940004 
L 227.04 230.22725 
L 232.450909 228.056916 
L 237.861818 230.532368 
L 243.272727 215.208672 
L 248.683636 234.988432 
L 254.094545 239.707281 
L 259.505455 229.835203 
L 264.916364 221.791622 
L 270.327273 243.863485 
L 275.738182 247.029308 
L 281.149091 215.844536 
L 286.56 236.269557 
L 291.970909 215.459795 
L 297.381818 260.015527 
L 302.792727 253.401911 
L 308.203636 230.168481 
L 313.614545 215.182359 
L 319.025455 229.645036 
L 324.436364 206.541385 
L 329.847273 232.042285 
L 335.258182 208.571295 
L 340.669091 238.025647 
L 346.08 259.810609 
L 351.490909 236.066694 
L 356.901818 252.136916 
L 362.312727 231.183361 
L 367.723636 229.172009 
L 373.134545 202.899205 
L 378.545455 238.512369 
L 383.956364 215.64161 
L 389.367273 226.24889 
L 394.778182 242.791535 
L 400.189091 204.579344 
L 405.6 213.399624 
L 411.010909 238.300563 
L 416.421818 181.936277 
L 421.832727 237.37708 
L 427.243636 242.900737 
L 432.654545 233.170281 
L 438.065455 224.628489 
L 443.476364 222.943465 
L 448.887273 249.139101 
L 454.298182 264.402954 
L 459.709091 231.644448 
L 465.12 243.659457 
L 470.530909 218.590516 
L 475.941818 232.060165 
L 481.352727 204.836191 
L 486.763636 266.310952 
L 492.174545 234.187217 
L 497.585455 267.34705 
L 502.996364 265.452039 
L 508.407273 241.127118 
L 513.818182 239.553686 
L 519.229091 250.995628 
L 524.64 233.049422 
L 530.050909 230.12348 
L 535.461818 218.222412 
L 540.872727 187.058372 
L 546.283636 237.224431 
L 551.694545 201.920757 
L 557.105455 201.378649 
L 562.516364 205.557268 
L 567.927273 270.798621 
L 573.338182 204.912465 
L 578.749091 252.645591 
L 584.16 232.009981 
L 589.570909 216.773839 
L 594.981818 263.656872 
L 600.392727 226.054706 
L 605.803636 241.929241 
L 611.214545 247.346974 
L 616.625455 266.168723 
L 622.036364 247.787966 
L 627.447273 244.979322 
L 632.858182 215.09747 
L 638.269091 197.908404 
L 643.68 213.649046 
" clip-path="url(#pe1785795f5)" style="fill: none; stroke: #bcbd22; stroke-width: 1.5; stroke-linecap: square"/>
   </g>
   <g id="line2d_44">
    <path d="M 108 194.630488 
L 113.410909 239.855034 
L 118.821818 218.804763 
L 124.232727 174.694865 
L 129.643636 245.303731 
L 135.054545 207.521217 
L 140.465455 242.062566 
L 145.876364 264.450157 
L 151.287273 251.11416 
L 156.698182 215.196348 
L 162.109091 218.423208 
L 167.52 236.967419 
L 172.930909 244.420814 
L 178.341818 224.523108 
L 183.752727 211.32767 
L 189.163636 210.19556 
L 194.574545 240.671415 
L 199.985455 218.837039 
L 205.396364 244.070239 
L 210.807273 221.448549 
L 216.218182 231.521205 
L 221.629091 197.597549 
L 227.04 203.589877 
L 232.450909 227.809256 
L 237.861818 228.126466 
L 243.272727 209.874043 
L 248.683636 223.102658 
L 254.094545 211.945652 
L 259.505455 208.464324 
L 264.916364 206.615936 
L 270.327273 215.681881 
L 275.738182 233.375083 
L 281.149091 198.498941 
L 286.56 212.301372 
L 291.970909 202.189394 
L 297.381818 246.085972 
L 302.792727 248.304813 
L 308.203636 223.12651 
L 313.614545 211.934616 
L 319.025455 225.907318 
L 324.436364 194.281686 
L 329.847273 206.197753 
L 335.258182 194.635612 
L 340.669091 231.742337 
L 346.08 257.035941 
L 351.490909 209.989014 
L 356.901818 249.544865 
L 362.312727 208.488364 
L 367.723636 203.109044 
L 373.134545 178.99123 
L 378.545455 213.903974 
L 383.956364 207.195663 
L 389.367273 222.558187 
L 394.778182 220.169455 
L 400.189091 191.824566 
L 405.6 209.901077 
L 411.010909 211.017502 
L 416.421818 158.848116 
L 421.832727 225.452073 
L 427.243636 217.381574 
L 432.654545 220.198722 
L 438.065455 210.297175 
L 443.476364 211.429914 
L 448.887273 224.101071 
L 454.298182 253.964491 
L 459.709091 210.552125 
L 465.12 217.902156 
L 470.530909 215.142217 
L 475.941818 220.398658 
L 481.352727 183.713053 
L 486.763636 259.327839 
L 492.174545 213.468296 
L 497.585455 264.058944 
L 502.996364 237.65219 
L 508.407273 239.093802 
L 513.818182 227.733675 
L 519.229091 226.909398 
L 524.64 223.660673 
L 530.050909 209.004016 
L 535.461818 217.884476 
L 540.872727 170.732797 
L 546.283636 219.282055 
L 551.694545 174.788549 
L 557.105455 177.308945 
L 562.516364 198.038191 
L 567.927273 261.995 
L 573.338182 187.138263 
L 578.749091 229.409486 
L 584.16 221.368868 
L 589.570909 192.090542 
L 594.981818 237.240193 
L 600.392727 207.520316 
L 605.803636 215.276008 
L 611.214545 221.117365 
L 616.625455 239.256038 
L 622.036364 247.654011 
L 627.447273 227.035814 
L 632.858182 196.649545 
L 638.269091 196.690174 
L 643.68 204.185888 
" clip-path="url(#pe1785795f5)" style="fill: none; stroke: #17becf; stroke-width: 1.5; stroke-linecap: square"/>
   </g>
   <g id="line2d_45">
    <path d="M 108 177.741065 
L 113.410909 230.260645 
L 118.821818 215.259042 
L 124.232727 153.362115 
L 129.643636 241.909005 
L 135.054545 193.179261 
L 140.465455 224.850223 
L 145.876364 263.70733 
L 151.287273 235.808735 
L 156.698182 207.733174 
L 162.109091 209.903755 
L 167.52 225.409322 
L 172.930909 235.216283 
L 178.341818 204.157119 
L 183.752727 197.001262 
L 189.163636 187.128897 
L 194.574545 215.081113 
L 199.985455 196.031776 
L 205.396364 243.512827 
L 210.807273 203.259384 
L 216.218182 205.032221 
L 221.629091 188.72343 
L 227.04 189.85028 
L 232.450909 215.055496 
L 237.861818 200.696559 
L 243.272727 195.69953 
L 248.683636 207.811447 
L 254.094545 194.222786 
L 259.505455 186.486038 
L 264.916364 198.584524 
L 270.327273 195.249675 
L 275.738182 206.760361 
L 281.149091 186.862371 
L 286.56 185.279174 
L 291.970909 173.517173 
L 297.381818 227.428929 
L 302.792727 228.311972 
L 308.203636 196.730151 
L 313.614545 198.692439 
L 319.025455 200.410653 
L 324.436364 189.366124 
L 329.847273 193.37164 
L 335.258182 167.636194 
L 340.669091 227.862983 
L 346.08 244.983532 
L 351.490909 183.254153 
L 356.901818 238.720698 
L 362.312727 199.250859 
L 367.723636 174.54166 
L 373.134545 163.008778 
L 378.545455 187.058657 
L 383.956364 189.100801 
L 389.367273 206.627325 
L 394.778182 212.633777 
L 400.189091 165.256984 
L 405.6 201.951022 
L 411.010909 183.676823 
L 416.421818 158.826639 
L 421.832727 217.024378 
L 427.243636 213.009842 
L 432.654545 200.74496 
L 438.065455 183.401374 
L 443.476364 205.824753 
L 448.887273 210.235714 
L 454.298182 238.845982 
L 459.709091 195.590672 
L 465.12 190.969196 
L 470.530909 186.242154 
L 475.941818 209.916233 
L 481.352727 172.831405 
L 486.763636 236.952682 
L 492.174545 190.479146 
L 497.585455 247.874557 
L 502.996364 220.568347 
L 508.407273 213.19976 
L 513.818182 215.01032 
L 519.229091 216.238395 
L 524.64 205.315279 
L 530.050909 202.953777 
L 535.461818 196.352298 
L 540.872727 156.72761 
L 546.283636 194.351984 
L 551.694545 169.360737 
L 557.105455 171.449249 
L 562.516364 188.21153 
L 567.927273 243.069061 
L 573.338182 174.00593 
L 578.749091 223.676391 
L 584.16 218.188998 
L 589.570909 189.918434 
L 594.981818 222.731279 
L 600.392727 183.275442 
L 605.803636 197.576459 
L 611.214545 211.084027 
L 616.625455 225.798187 
L 622.036364 236.431495 
L 627.447273 210.575791 
L 632.858182 196.49599 
L 638.269091 177.586935 
L 643.68 201.506475 
" clip-path="url(#pe1785795f5)" style="fill: none; stroke: #1f77b4; stroke-width: 1.5; stroke-linecap: square"/>
   </g>
   <g id="line2d_46">
    <path d="M 108 152.328513 
L 113.410909 206.153203 
L 118.821818 210.625254 
L 124.232727 139.230061 
L 129.643636 239.367307 
L 135.054545 190.272957 
L 140.465455 212.973899 
L 145.876364 241.621364 
L 151.287273 210.408237 
L 156.698182 178.7488 
L 162.109091 195.722917 
L 167.52 223.278301 
L 172.930909 221.827285 
L 178.341818 189.984217 
L 183.752727 168.319149 
L 189.163636 171.985476 
L 194.574545 204.336831 
L 199.985455 181.021787 
L 205.396364 229.042362 
L 210.807273 187.02731 
L 216.218182 195.374002 
L 221.629091 181.070146 
L 227.04 182.234427 
L 232.450909 189.880569 
L 237.861818 189.489229 
L 243.272727 174.135658 
L 248.683636 180.423487 
L 254.094545 183.749888 
L 259.505455 184.301953 
L 264.916364 171.492384 
L 270.327273 194.434098 
L 275.738182 202.886932 
L 281.149091 161.093846 
L 286.56 158.437596 
L 291.970909 167.657552 
L 297.381818 213.588197 
L 302.792727 216.198518 
L 308.203636 180.357434 
L 313.614545 182.440576 
L 319.025455 179.609396 
L 324.436364 164.662829 
L 329.847273 179.717074 
L 335.258182 167.491473 
L 340.669091 212.972677 
L 346.08 237.511124 
L 351.490909 162.43755 
L 356.901818 221.287214 
L 362.312727 188.654133 
L 367.723636 165.397151 
L 373.134545 146.650759 
L 378.545455 184.99491 
L 383.956364 187.962757 
L 389.367273 187.773399 
L 394.778182 198.776008 
L 400.189091 164.046438 
L 405.6 188.243806 
L 411.010909 160.066837 
L 416.421818 144.288595 
L 421.832727 210.03911 
L 427.243636 196.199204 
L 432.654545 181.769746 
L 438.065455 154.495784 
L 443.476364 203.568448 
L 448.887273 182.275231 
L 454.298182 210.685912 
L 459.709091 168.962291 
L 465.12 172.286746 
L 470.530909 164.392957 
L 475.941818 183.625414 
L 481.352727 159.780136 
L 486.763636 218.329366 
L 492.174545 178.412712 
L 497.585455 223.368342 
L 502.996364 195.587447 
L 508.407273 208.531899 
L 513.818182 197.610673 
L 519.229091 205.474519 
L 524.64 180.318365 
L 530.050909 193.675344 
L 535.461818 191.572282 
L 540.872727 134.972052 
L 546.283636 168.045388 
L 551.694545 155.790976 
L 557.105455 143.833714 
L 562.516364 168.24809 
L 567.927273 216.631064 
L 573.338182 150.525412 
L 578.749091 219.791555 
L 584.16 198.455905 
L 589.570909 188.86375 
L 594.981818 194.996441 
L 600.392727 162.936989 
L 605.803636 187.886607 
L 611.214545 188.82212 
L 616.625455 200.946081 
L 622.036364 229.65026 
L 627.447273 202.011439 
L 632.858182 174.536901 
L 638.269091 173.531092 
L 643.68 178.589764 
" clip-path="url(#pe1785795f5)" style="fill: none; stroke: #ff7f0e; stroke-width: 1.5; stroke-linecap: square"/>
   </g>
   <g id="line2d_47">
    <path d="M 108 150.205386 
L 113.410909 189.157023 
L 118.821818 207.193935 
L 124.232727 130.6363 
L 129.643636 232.17617 
L 135.054545 162.431865 
L 140.465455 192.491898 
L 145.876364 235.971825 
L 151.287273 193.316392 
L 156.698182 164.796328 
L 162.109091 188.343696 
L 167.52 206.458555 
L 172.930909 203.600498 
L 178.341818 187.777086 
L 183.752727 145.272375 
L 189.163636 162.018091 
L 194.574545 193.780573 
L 199.985455 167.301498 
L 205.396364 205.507485 
L 210.807273 186.364194 
L 216.218182 166.650373 
L 221.629091 152.189778 
L 227.04 161.263831 
L 232.450909 185.842175 
L 237.861818 179.993515 
L 243.272727 155.174339 
L 248.683636 164.210218 
L 254.094545 181.126082 
L 259.505455 174.748201 
L 264.916364 152.723168 
L 270.327273 170.758259 
L 275.738182 183.661187 
L 281.149091 160.207099 
L 286.56 141.916505 
L 291.970909 167.068931 
L 297.381818 198.012914 
L 302.792727 211.658857 
L 308.203636 156.337012 
L 313.614545 172.685302 
L 319.025455 168.730511 
L 324.436364 155.614072 
L 329.847273 161.269847 
L 335.258182 165.757336 
L 340.669091 207.143769 
L 346.08 223.278546 
L 351.490909 151.19871 
L 356.901818 215.294006 
L 362.312727 175.878801 
L 367.723636 162.09953 
L 373.134545 138.405042 
L 378.545455 159.11328 
L 383.956364 167.492203 
L 389.367273 170.534471 
L 394.778182 181.486479 
L 400.189091 161.038494 
L 405.6 187.388957 
L 411.010909 139.843928 
L 416.421818 144.151961 
L 421.832727 197.394154 
L 427.243636 183.155748 
L 432.654545 177.284658 
L 438.065455 148.960532 
L 443.476364 182.783688 
L 448.887273 170.404063 
L 454.298182 185.790285 
L 459.709091 140.625908 
L 465.12 161.810199 
L 470.530909 137.4695 
L 475.941818 176.630076 
L 481.352727 131.160253 
L 486.763636 195.736708 
L 492.174545 152.468325 
L 497.585455 215.700727 
L 502.996364 189.545675 
L 508.407273 202.448183 
L 513.818182 191.679312 
L 519.229091 184.322349 
L 524.64 179.471216 
L 530.050909 168.131584 
L 535.461818 166.199552 
L 540.872727 120.67522 
L 546.283636 154.534594 
L 551.694545 136.575638 
L 557.105455 116.784853 
L 562.516364 152.131401 
L 567.927273 206.510305 
L 573.338182 149.747936 
L 578.749091 209.692853 
L 584.16 192.632863 
L 589.570909 163.664469 
L 594.981818 183.553977 
L 600.392727 156.087265 
L 605.803636 172.965655 
L 611.214545 171.357038 
L 616.625455 177.272731 
L 622.036364 203.515898 
L 627.447273 193.148831 
L 632.858182 163.408756 
L 638.269091 159.758527 
L 643.68 164.430697 
" clip-path="url(#pe1785795f5)" style="fill: none; stroke: #2ca02c; stroke-width: 1.5; stroke-linecap: square"/>
   </g>
   <g id="line2d_48">
    <path d="M 108 126.775276 
L 113.410909 161.246879 
L 118.821818 180.515808 
L 124.232727 105.173775 
L 129.643636 223.591661 
L 135.054545 158.247341 
L 140.465455 167.293826 
L 145.876364 224.023856 
L 151.287273 167.085112 
L 156.698182 155.931354 
L 162.109091 174.173818 
L 167.52 194.865309 
L 172.930909 194.807995 
L 178.341818 183.268886 
L 183.752727 140.905522 
L 189.163636 151.061861 
L 194.574545 173.862066 
L 199.985455 160.547553 
L 205.396364 190.578641 
L 210.807273 180.622422 
L 216.218182 140.029428 
L 221.629091 140.337238 
L 227.04 144.97671 
L 232.450909 173.032271 
L 237.861818 152.865216 
L 243.272727 131.307399 
L 248.683636 163.20347 
L 254.094545 171.003393 
L 259.505455 162.727717 
L 264.916364 150.709095 
L 270.327273 164.667788 
L 275.738182 177.593399 
L 281.149091 147.48587 
L 286.56 140.175088 
L 291.970909 164.842543 
L 297.381818 192.861978 
L 302.792727 196.285401 
L 308.203636 149.875375 
L 313.614545 151.292722 
L 319.025455 143.337552 
L 324.436364 139.295335 
L 329.847273 159.623689 
L 335.258182 155.270737 
L 340.669091 192.417227 
L 346.08 212.315084 
L 351.490909 135.444164 
L 356.901818 193.331375 
L 362.312727 159.416227 
L 367.723636 160.000381 
L 373.134545 124.931622 
L 378.545455 155.788752 
L 383.956364 166.608149 
L 389.367273 153.960737 
L 394.778182 160.648891 
L 400.189091 156.269585 
L 405.6 177.829233 
L 411.010909 117.483093 
L 416.421818 143.515528 
L 421.832727 175.616833 
L 427.243636 160.760678 
L 432.654545 148.840244 
L 438.065455 138.485435 
L 443.476364 163.897459 
L 448.887273 157.198458 
L 454.298182 162.903469 
L 459.709091 132.482814 
L 465.12 138.936006 
L 470.530909 137.46425 
L 475.941818 152.145341 
L 481.352727 119.489465 
L 486.763636 177.103852 
L 492.174545 140.442536 
L 497.585455 194.908286 
L 502.996364 174.929091 
L 508.407273 174.047822 
L 513.818182 169.3715 
L 519.229091 178.534332 
L 524.64 166.191706 
L 530.050909 158.35582 
L 535.461818 155.922012 
L 540.872727 111.688316 
L 546.283636 128.990749 
L 551.694545 129.016201 
L 557.105455 100.240065 
L 562.516364 141.320203 
L 567.927273 184.273888 
L 573.338182 143.474922 
L 578.749091 189.754296 
L 584.16 182.189986 
L 589.570909 154.631555 
L 594.981818 159.024224 
L 600.392727 144.001453 
L 605.803636 159.959801 
L 611.214545 157.48901 
L 616.625455 165.582749 
L 622.036364 178.046305 
L 627.447273 192.856816 
L 632.858182 147.417284 
L 638.269091 158.265708 
L 643.68 146.255754 
" clip-path="url(#pe1785795f5)" style="fill: none; stroke: #d62728; stroke-width: 1.5; stroke-linecap: square"/>
   </g>
   <g id="line2d_49">
    <path d="M 108 123.205961 
L 113.410909 133.387094 
L 118.821818 169.435698 
L 124.232727 87.61451 
L 129.643636 221.086316 
L 135.054545 154.810426 
L 140.465455 143.920329 
L 145.876364 205.136074 
L 151.287273 138.955404 
L 156.698182 150.967973 
L 162.109091 149.238185 
L 167.52 193.633689 
L 172.930909 189.421045 
L 178.341818 162.582085 
L 183.752727 137.55114 
L 189.163636 122.653755 
L 194.574545 160.024752 
L 199.985455 133.135395 
L 205.396364 184.398591 
L 210.807273 152.927906 
L 216.218182 121.911335 
L 221.629091 112.047555 
L 227.04 120.400026 
L 232.450909 171.279642 
L 237.861818 139.751014 
L 243.272727 111.176611 
L 248.683636 142.366656 
L 254.094545 150.60377 
L 259.505455 153.385005 
L 264.916364 131.608053 
L 270.327273 157.942113 
L 275.738182 155.71684 
L 281.149091 124.772744 
L 286.56 123.966704 
L 291.970909 160.595624 
L 297.381818 170.812049 
L 302.792727 177.176724 
L 308.203636 139.88804 
L 313.614545 141.000527 
L 319.025455 120.474746 
L 324.436364 134.210785 
L 329.847273 145.880748 
L 335.258182 136.63079 
L 340.669091 174.534117 
L 346.08 194.304133 
L 351.490909 119.990922 
L 356.901818 174.897254 
L 362.312727 155.058823 
L 367.723636 153.652478 
L 373.134545 116.126249 
L 378.545455 133.058083 
L 383.956364 158.069754 
L 389.367273 128.251257 
L 394.778182 155.768816 
L 400.189091 133.228466 
L 405.6 154.60963 
L 411.010909 109.21107 
L 416.421818 134.661591 
L 421.832727 146.900717 
L 427.243636 133.740988 
L 432.654545 147.515426 
L 438.065455 122.341139 
L 443.476364 146.206828 
L 448.887273 133.170542 
L 454.298182 147.738224 
L 459.709091 106.243219 
L 465.12 123.667278 
L 470.530909 118.959643 
L 475.941818 149.749546 
L 481.352727 110.421873 
L 486.763636 175.385442 
L 492.174545 130.244339 
L 497.585455 180.192623 
L 502.996364 173.942561 
L 508.407273 172.573013 
L 513.818182 142.18841 
L 519.229091 174.253628 
L 524.64 145.891477 
L 530.050909 138.734738 
L 535.461818 146.119741 
L 540.872727 106.654921 
L 546.283636 104.880496 
L 551.694545 120.8142 
L 557.105455 99.655583 
L 562.516364 135.942854 
L 567.927273 167.84436 
L 573.338182 137.265076 
L 578.749091 172.479172 
L 584.16 164.927889 
L 589.570909 151.321496 
L 594.981818 143.679624 
L 600.392727 130.194057 
L 605.803636 149.997435 
L 611.214545 138.592794 
L 616.625455 149.586679 
L 622.036364 150.504473 
L 627.447273 182.737091 
L 632.858182 120.761761 
L 638.269091 133.250867 
L 643.68 139.967492 
" clip-path="url(#pe1785795f5)" style="fill: none; stroke: #9467bd; stroke-width: 1.5; stroke-linecap: square"/>
   </g>
   <g id="line2d_50">
    <path d="M 108 94.91031 
L 113.410909 117.311927 
L 118.821818 151.570304 
L 124.232727 66.665455 
L 129.643636 200.455573 
L 135.054545 145.368605 
L 140.465455 117.37253 
L 145.876364 187.09871 
L 151.287273 125.696674 
L 156.698182 127.880265 
L 162.109091 133.437831 
L 167.52 168.353215 
L 172.930909 177.862338 
L 178.341818 136.250914 
L 183.752727 115.512919 
L 189.163636 102.823504 
L 194.574545 156.548203 
L 199.985455 128.225468 
L 205.396364 167.802793 
L 210.807273 143.520919 
L 216.218182 121.773656 
L 221.629091 83.352061 
L 227.04 110.385797 
L 232.450909 157.318248 
L 237.861818 115.801325 
L 243.272727 92.376511 
L 248.683636 114.149767 
L 254.094545 145.271862 
L 259.505455 130.836066 
L 264.916364 116.484185 
L 270.327273 130.005214 
L 275.738182 139.384493 
L 281.149091 123.286994 
L 286.56 109.518007 
L 291.970909 135.890852 
L 297.381818 166.575994 
L 302.792727 175.065561 
L 308.203636 122.411486 
L 313.614545 126.21647 
L 319.025455 93.959667 
L 324.436364 124.568145 
L 329.847273 117.989578 
L 335.258182 118.841354 
L 340.669091 170.970912 
L 346.08 180.875826 
L 351.490909 102.195128 
L 356.901818 161.136547 
L 362.312727 141.240868 
L 367.723636 132.46424 
L 373.134545 95.907782 
L 378.545455 113.140214 
L 383.956364 133.140801 
L 389.367273 114.030504 
L 394.778182 149.258519 
L 400.189091 121.582038 
L 405.6 149.507242 
L 411.010909 88.349445 
L 416.421818 133.836558 
L 421.832727 142.372138 
L 427.243636 111.914441 
L 432.654545 126.999465 
L 438.065455 93.482712 
L 443.476364 124.756635 
L 448.887273 111.050745 
L 454.298182 138.498955 
L 459.709091 90.89284 
L 465.12 102.548736 
L 470.530909 118.387673 
L 475.941818 140.614683 
L 481.352727 105.470011 
L 486.763636 169.392155 
L 492.174545 104.785203 
L 497.585455 178.730212 
L 502.996364 155.711713 
L 508.407273 159.385658 
L 513.818182 129.307509 
L 519.229091 154.491746 
L 524.64 135.539282 
L 530.050909 119.576875 
L 535.461818 129.522686 
L 540.872727 97.989657 
L 546.283636 82.240936 
L 551.694545 116.958457 
L 557.105455 79.421691 
L 562.516364 109.713841 
L 567.927273 139.066765 
L 573.338182 113.344425 
L 578.749091 153.024397 
L 584.16 160.155913 
L 589.570909 138.73549 
L 594.981818 128.040462 
L 600.392727 120.317851 
L 605.803636 140.11443 
L 611.214545 124.448647 
L 616.625455 140.967396 
L 622.036364 150.111479 
L 627.447273 171.524832 
L 632.858182 101.688414 
L 638.269091 120.626541 
L 643.68 117.9235 
" clip-path="url(#pe1785795f5)" style="fill: none; stroke: #8c564b; stroke-width: 1.5; stroke-linecap: square"/>
   </g>
   <g id="patch_3">
    <path d="M 108 378 
L 108 51.84 
" style="fill: none; stroke: #000000; stroke-width: 0.8; stroke-linejoin: miter; stroke-linecap: square"/>
   </g>
   <g id="patch_4">
    <path d="M 643.68 378 
L 643.68 51.84 
" style="fill: none; stroke: #000000; stroke-width: 0.8; stroke-linejoin: miter; stroke-linecap: square"/>
   </g>
   <g id="patch_5">
    <path d="M 108 378 
L 643.68 378 
" style="fill: none; stroke: #000000; stroke-width: 0.8; stroke-linejoin: miter; stroke-linecap: square"/>
   </g>
   <g id="patch_6">
    <path d="M 108 51.84 
L 643.68 51.84 
" style="fill: none; stroke: #000000; stroke-width: 0.8; stroke-linejoin: miter; stroke-linecap: square"/>
   </g>
   <g id="legend_1">
    <g id="patch_7">
     <path d="M 650.68 333.845 
L 753.13 333.845 
Q 755.13 333.845 755.13 331.845 
L 755.13 97.995 
Q 755.13 95.995 753.13 95.995 
L 650.68 95.995 
Q 648.68 95.995 648.68 97.995 
L 648.68 331.845 
Q 648.68 333.845 650.68 333.845 
z
" style="fill: #ffffff; opacity: 0.8; stroke: #cccccc; stroke-linejoin: miter"/>
    </g>
    <g id="line2d_51">
     <path d="M 652.68 104.093437 
L 662.68 104.093437 
L 672.68 104.093437 
" style="fill: none; stroke: #1f77b4; stroke-width: 1.5; stroke-linecap: square"/>
    </g>
    <g id="text_11">
     <!-- Ariel -->
     <g transform="translate(680.68 107.593437)scale(0.1 -0.1)">
      <defs>
       <path id="DejaVuSans-69" d="M 603 3500 
L 1178 3500 
L 1178 0 
L 603 0 
L 603 3500 
z
M 603 4863 
L 1178 4863 
L 1178 4134 
L 603 4134 
L 603 4863 
z
" transform="scale(0.015625)"/>
       <path id="DejaVuSans-6c" d="M 603 4863 
L 1178 4863 
L 1178 0 
L 603 0 
L 603 4863 
z
" transform="scale(0.015625)"/>
      </defs>
      <use xlink:href="#DejaVuSans-41"/>
      <use xlink:href="#DejaVuSans-72" x="68.408203"/>
      <use xlink:href="#DejaVuSans-69" x="109.521484"/>
      <use xlink:href="#DejaVuSans-65" x="137.304688"/>
      <use xlink:href="#DejaVuSans-6c" x="198.828125"/>
     </g>
    </g>
    <g id="line2d_52">
     <path d="M 652.68 118.771563 
L 662.68 118.771563 
L 672.68 118.771563 
" style="fill: none; stroke: #ff7f0e; stroke-width: 1.5; stroke-linecap: square"/>
    </g>
    <g id="text_12">
     <!-- Beaumonde -->
     <g transform="translate(680.68 122.271563)scale(0.1 -0.1)">
      <defs>
       <path id="DejaVuSans-42" d="M 1259 2228 
L 1259 519 
L 2272 519 
Q 2781 519 3026 730 
Q 3272 941 3272 1375 
Q 3272 1813 3026 2020 
Q 2781 2228 2272 2228 
L 1259 2228 
z
M 1259 4147 
L 1259 2741 
L 2194 2741 
Q 2656 2741 2882 2914 
Q 3109 3088 3109 3444 
Q 3109 3797 2882 3972 
Q 2656 4147 2194 4147 
L 1259 4147 
z
M 628 4666 
L 2241 4666 
Q 2963 4666 3353 4366 
Q 3744 4066 3744 3513 
Q 3744 3084 3544 2831 
Q 3344 2578 2956 2516 
Q 3422 2416 3680 2098 
Q 3938 1781 3938 1306 
Q 3938 681 3513 340 
Q 3088 0 2303 0 
L 628 0 
L 628 4666 
z
" transform="scale(0.015625)"/>
       <path id="DejaVuSans-75" d="M 544 1381 
L 544 3500 
L 1119 3500 
L 1119 1403 
Q 1119 906 1312 657 
Q 1506 409 1894 409 
Q 2359 409 2629 706 
Q 2900 1003 2900 1516 
L 2900 3500 
L 3475 3500 
L 3475 0 
L 2900 0 
L 2900 538 
Q 2691 219 2414 64 
Q 2138 -91 1772 -91 
Q 1169 -91 856 284 
Q 544 659 544 1381 
z
M 1991 3584 
L 1991 3584 
z
" transform="scale(0.015625)"/>
       <path id="DejaVuSans-6d" d="M 3328 2828 
Q 3544 3216 3844 3400 
Q 4144 3584 4550 3584 
Q 5097 3584 5394 3201 
Q 5691 2819 5691 2113 
L 5691 0 
L 5113 0 
L 5113 2094 
Q 5113 2597 4934 2840 
Q 4756 3084 4391 3084 
Q 3944 3084 3684 2787 
Q 3425 2491 3425 1978 
L 3425 0 
L 2847 0 
L 2847 2094 
Q 2847 2600 2669 2842 
Q 2491 3084 2119 3084 
Q 1678 3084 1418 2786 
Q 1159 2488 1159 1978 
L 1159 0 
L 581 0 
L 581 3500 
L 1159 3500 
L 1159 2956 
Q 1356 3278 1631 3431 
Q 1906 3584 2284 3584 
Q 2666 3584 2933 3390 
Q 3200 3197 3328 2828 
z
" transform="scale(0.015625)"/>
       <path id="DejaVuSans-6f" d="M 1959 3097 
Q 1497 3097 1228 2736 
Q 959 2375 959 1747 
Q 959 1119 1226 758 
Q 1494 397 1959 397 
Q 2419 397 2687 759 
Q 2956 1122 2956 1747 
Q 2956 2369 2687 2733 
Q 2419 3097 1959 3097 
z
M 1959 3584 
Q 2709 3584 3137 3096 
Q 3566 2609 3566 1747 
Q 3566 888 3137 398 
Q 2709 -91 1959 -91 
Q 1206 -91 779 398 
Q 353 888 353 1747 
Q 353 2609 779 3096 
Q 1206 3584 1959 3584 
z
" transform="scale(0.015625)"/>
       <path id="DejaVuSans-64" d="M 2906 2969 
L 2906 4863 
L 3481 4863 
L 3481 0 
L 2906 0 
L 2906 525 
Q 2725 213 2448 61 
Q 2172 -91 1784 -91 
Q 1150 -91 751 415 
Q 353 922 353 1747 
Q 353 2572 751 3078 
Q 1150 3584 1784 3584 
Q 2172 3584 2448 3432 
Q 2725 3281 2906 2969 
z
M 947 1747 
Q 947 1113 1208 752 
Q 1469 391 1925 391 
Q 2381 391 2643 752 
Q 2906 1113 2906 1747 
Q 2906 2381 2643 2742 
Q 2381 3103 1925 3103 
Q 1469 3103 1208 2742 
Q 947 2381 947 1747 
z
" transform="scale(0.015625)"/>
      </defs>
      <use xlink:href="#DejaVuSans-42"/>
      <use xlink:href="#DejaVuSans-65" x="68.603516"/>
      <use xlink:href="#DejaVuSans-61" x="130.126953"/>
      <use xlink:href="#DejaVuSans-75" x="191.40625"/>
      <use xlink:href="#DejaVuSans-6d" x="254.785156"/>
      <use xlink:href="#DejaVuSans-6f" x="352.197266"/>
      <use xlink:href="#DejaVuSans-6e" x="413.378906"/>
      <use xlink:href="#DejaVuSans-64" x="476.757812"/>
      <use xlink:href="#DejaVuSans-65" x="540.234375"/>
     </g>
    </g>
    <g id="line2d_53">
     <path d="M 652.68 133.449687 
L 662.68 133.449687 
L 672.68 133.449687 
" style="fill: none; stroke: #2ca02c; stroke-width: 1.5; stroke-linecap: square"/>
    </g>
    <g id="text_13">
     <!-- Bellerophon -->
     <g transform="translate(680.68 136.949687)scale(0.1 -0.1)">
      <defs>
       <path id="DejaVuSans-68" d="M 3513 2113 
L 3513 0 
L 2938 0 
L 2938 2094 
Q 2938 2591 2744 2837 
Q 2550 3084 2163 3084 
Q 1697 3084 1428 2787 
Q 1159 2491 1159 1978 
L 1159 0 
L 581 0 
L 581 4863 
L 1159 4863 
L 1159 2956 
Q 1366 3272 1645 3428 
Q 1925 3584 2291 3584 
Q 2894 3584 3203 3211 
Q 3513 2838 3513 2113 
z
" transform="scale(0.015625)"/>
      </defs>
      <use xlink:href="#DejaVuSans-42"/>
      <use xlink:href="#DejaVuSans-65" x="68.603516"/>
      <use xlink:href="#DejaVuSans-6c" x="130.126953"/>
      <use xlink:href="#DejaVuSans-6c" x="157.910156"/>
      <use xlink:href="#DejaVuSans-65" x="185.693359"/>
      <use xlink:href="#DejaVuSans-72" x="247.216797"/>
      <use xlink:href="#DejaVuSans-6f" x="286.080078"/>
      <use xlink:href="#DejaVuSans-70" x="347.261719"/>
      <use xlink:href="#DejaVuSans-68" x="410.738281"/>
      <use xlink:href="#DejaVuSans-6f" x="474.117188"/>
      <use xlink:href="#DejaVuSans-6e" x="535.298828"/>
     </g>
    </g>
    <g id="line2d_54">
     <path d="M 652.68 148.127813 
L 662.68 148.127813 
L 672.68 148.127813 
" style="fill: none; stroke: #d62728; stroke-width: 1.5; stroke-linecap: square"/>
    </g>
    <g id="text_14">
     <!-- Haven -->
     <g transform="translate(680.68 151.627813)scale(0.1 -0.1)">
      <defs>
       <path id="DejaVuSans-48" d="M 628 4666 
L 1259 4666 
L 1259 2753 
L 3553 2753 
L 3553 4666 
L 4184 4666 
L 4184 0 
L 3553 0 
L 3553 2222 
L 1259 2222 
L 1259 0 
L 628 0 
L 628 4666 
z
" transform="scale(0.015625)"/>
       <path id="DejaVuSans-76" d="M 191 3500 
L 800 3500 
L 1894 563 
L 2988 3500 
L 3597 3500 
L 2284 0 
L 1503 0 
L 191 3500 
z
" transform="scale(0.015625)"/>
      </defs>
      <use xlink:href="#DejaVuSans-48"/>
      <use xlink:href="#DejaVuSans-61" x="75.195312"/>
      <use xlink:href="#DejaVuSans-76" x="136.474609"/>
      <use xlink:href="#DejaVuSans-65" x="195.654297"/>
      <use xlink:href="#DejaVuSans-6e" x="257.177734"/>
     </g>
    </g>
    <g id="line2d_55">
     <path d="M 652.68 162.805938 
L 662.68 162.805938 
L 672.68 162.805938 
" style="fill: none; stroke: #9467bd; stroke-width: 1.5; stroke-linecap: square"/>
    </g>
    <g id="text_15">
     <!-- Hera -->
     <g transform="translate(680.68 166.305938)scale(0.1 -0.1)">
      <use xlink:href="#DejaVuSans-48"/>
      <use xlink:href="#DejaVuSans-65" x="75.195312"/>
      <use xlink:href="#DejaVuSans-72" x="136.71875"/>
      <use xlink:href="#DejaVuSans-61" x="177.832031"/>
     </g>
    </g>
    <g id="line2d_56">
     <path d="M 652.68 177.484063 
L 662.68 177.484063 
L 672.68 177.484063 
" style="fill: none; stroke: #8c564b; stroke-width: 1.5; stroke-linecap: square"/>
    </g>
    <g id="text_16">
     <!-- Higgins' Moon -->
     <g transform="translate(680.68 180.984063)scale(0.1 -0.1)">
      <defs>
       <path id="DejaVuSans-67" d="M 2906 1791 
Q 2906 2416 2648 2759 
Q 2391 3103 1925 3103 
Q 1463 3103 1205 2759 
Q 947 2416 947 1791 
Q 947 1169 1205 825 
Q 1463 481 1925 481 
Q 2391 481 2648 825 
Q 2906 1169 2906 1791 
z
M 3481 434 
Q 3481 -459 3084 -895 
Q 2688 -1331 1869 -1331 
Q 1566 -1331 1297 -1286 
Q 1028 -1241 775 -1147 
L 775 -588 
Q 1028 -725 1275 -790 
Q 1522 -856 1778 -856 
Q 2344 -856 2625 -561 
Q 2906 -266 2906 331 
L 2906 616 
Q 2728 306 2450 153 
Q 2172 0 1784 0 
Q 1141 0 747 490 
Q 353 981 353 1791 
Q 353 2603 747 3093 
Q 1141 3584 1784 3584 
Q 2172 3584 2450 3431 
Q 2728 3278 2906 2969 
L 2906 3500 
L 3481 3500 
L 3481 434 
z
" transform="scale(0.015625)"/>
       <path id="DejaVuSans-73" d="M 2834 3397 
L 2834 2853 
Q 2591 2978 2328 3040 
Q 2066 3103 1784 3103 
Q 1356 3103 1142 2972 
Q 928 2841 928 2578 
Q 928 2378 1081 2264 
Q 1234 2150 1697 2047 
L 1894 2003 
Q 2506 1872 2764 1633 
Q 3022 1394 3022 966 
Q 3022 478 2636 193 
Q 2250 -91 1575 -91 
Q 1294 -91 989 -36 
Q 684 19 347 128 
L 347 722 
Q 666 556 975 473 
Q 1284 391 1588 391 
Q 1994 391 2212 530 
Q 2431 669 2431 922 
Q 2431 1156 2273 1281 
Q 2116 1406 1581 1522 
L 1381 1569 
Q 847 1681 609 1914 
Q 372 2147 372 2553 
Q 372 3047 722 3315 
Q 1072 3584 1716 3584 
Q 2034 3584 2315 3537 
Q 2597 3491 2834 3397 
z
" transform="scale(0.015625)"/>
       <path id="DejaVuSans-27" d="M 1147 4666 
L 1147 2931 
L 616 2931 
L 616 4666 
L 1147 4666 
z
" transform="scale(0.015625)"/>
       <path id="DejaVuSans-20" transform="scale(0.015625)"/>
      </defs>
      <use xlink:href="#DejaVuSans-48"/>
      <use xlink:href="#DejaVuSans-69" x="75.195312"/>
      <use xlink:href="#DejaVuSans-67" x="102.978516"/>
      <use xlink:href="#DejaVuSans-67" x="166.455078"/>
      <use xlink:href="#DejaVuSans-69" x="229.931641"/>
      <use xlink:href="#DejaVuSans-6e" x="257.714844"/>
      <use xlink:href="#DejaVuSans-73" x="321.09375"/>
      <use xlink:href="#DejaVuSans-27" x="373.193359"/>
      <use xlink:href="#DejaVuSans-20" x="400.683594"/>
      <use xlink:href="#DejaVuSans-4d" x="432.470703"/>
      <use xlink:href="#DejaVuSans-6f" x="518.75"/>
      <use xlink:href="#DejaVuSans-6f" x="579.931641"/>
      <use xlink:href="#DejaVuSans-6e" x="641.113281"/>
     </g>
    </g>
    <g id="line2d_57">
     <path d="M 652.68 192.162187 
L 662.68 192.162187 
L 672.68 192.162187 
" style="fill: none; stroke: #e377c2; stroke-width: 1.5; stroke-linecap: square"/>
    </g>
    <g id="text_17">
     <!-- Jiangyin -->
     <g transform="translate(680.68 195.662187)scale(0.1 -0.1)">
      <defs>
       <path id="DejaVuSans-79" d="M 2059 -325 
Q 1816 -950 1584 -1140 
Q 1353 -1331 966 -1331 
L 506 -1331 
L 506 -850 
L 844 -850 
Q 1081 -850 1212 -737 
Q 1344 -625 1503 -206 
L 1606 56 
L 191 3500 
L 800 3500 
L 1894 763 
L 2988 3500 
L 3597 3500 
L 2059 -325 
z
" transform="scale(0.015625)"/>
      </defs>
      <use xlink:href="#DejaVuSans-4a"/>
      <use xlink:href="#DejaVuSans-69" x="29.492188"/>
      <use xlink:href="#DejaVuSans-61" x="57.275391"/>
      <use xlink:href="#DejaVuSans-6e" x="118.554688"/>
      <use xlink:href="#DejaVuSans-67" x="181.933594"/>
      <use xlink:href="#DejaVuSans-79" x="245.410156"/>
      <use xlink:href="#DejaVuSans-69" x="304.589844"/>
      <use xlink:href="#DejaVuSans-6e" x="332.373047"/>
     </g>
    </g>
    <g id="line2d_58">
     <path d="M 652.68 206.840312 
L 662.68 206.840312 
L 672.68 206.840312 
" style="fill: none; stroke: #7f7f7f; stroke-width: 1.5; stroke-linecap: square"/>
    </g>
    <g id="text_18">
     <!-- Lilac -->
     <g transform="translate(680.68 210.340312)scale(0.1 -0.1)">
      <defs>
       <path id="DejaVuSans-4c" d="M 628 4666 
L 1259 4666 
L 1259 531 
L 3531 531 
L 3531 0 
L 628 0 
L 628 4666 
z
" transform="scale(0.015625)"/>
       <path id="DejaVuSans-63" d="M 3122 3366 
L 3122 2828 
Q 2878 2963 2633 3030 
Q 2388 3097 2138 3097 
Q 1578 3097 1268 2742 
Q 959 2388 959 1747 
Q 959 1106 1268 751 
Q 1578 397 2138 397 
Q 2388 397 2633 464 
Q 2878 531 3122 666 
L 3122 134 
Q 2881 22 2623 -34 
Q 2366 -91 2075 -91 
Q 1284 -91 818 406 
Q 353 903 353 1747 
Q 353 2603 823 3093 
Q 1294 3584 2113 3584 
Q 2378 3584 2631 3529 
Q 2884 3475 3122 3366 
z
" transform="scale(0.015625)"/>
      </defs>
      <use xlink:href="#DejaVuSans-4c"/>
      <use xlink:href="#DejaVuSans-69" x="55.712891"/>
      <use xlink:href="#DejaVuSans-6c" x="83.496094"/>
      <use xlink:href="#DejaVuSans-61" x="111.279297"/>
      <use xlink:href="#DejaVuSans-63" x="172.558594"/>
     </g>
    </g>
    <g id="line2d_59">
     <path d="M 652.68 221.518438 
L 662.68 221.518438 
L 672.68 221.518438 
" style="fill: none; stroke: #bcbd22; stroke-width: 1.5; stroke-linecap: square"/>
    </g>
    <g id="text_19">
     <!-- Miranda -->
     <g transform="translate(680.68 225.018438)scale(0.1 -0.1)">
      <use xlink:href="#DejaVuSans-4d"/>
      <use xlink:href="#DejaVuSans-69" x="86.279297"/>
      <use xlink:href="#DejaVuSans-72" x="114.0625"/>
      <use xlink:href="#DejaVuSans-61" x="155.175781"/>
      <use xlink:href="#DejaVuSans-6e" x="216.455078"/>
      <use xlink:href="#DejaVuSans-64" x="279.833984"/>
      <use xlink:href="#DejaVuSans-61" x="343.310547"/>
     </g>
    </g>
    <g id="line2d_60">
     <path d="M 652.68 236.196562 
L 662.68 236.196562 
L 672.68 236.196562 
" style="fill: none; stroke: #17becf; stroke-width: 1.5; stroke-linecap: square"/>
    </g>
    <g id="text_20">
     <!-- Osiris -->
     <g transform="translate(680.68 239.696562)scale(0.1 -0.1)">
      <defs>
       <path id="DejaVuSans-4f" d="M 2522 4238 
Q 1834 4238 1429 3725 
Q 1025 3213 1025 2328 
Q 1025 1447 1429 934 
Q 1834 422 2522 422 
Q 3209 422 3611 934 
Q 4013 1447 4013 2328 
Q 4013 3213 3611 3725 
Q 3209 4238 2522 4238 
z
M 2522 4750 
Q 3503 4750 4090 4092 
Q 4678 3434 4678 2328 
Q 4678 1225 4090 567 
Q 3503 -91 2522 -91 
Q 1538 -91 948 565 
Q 359 1222 359 2328 
Q 359 3434 948 4092 
Q 1538 4750 2522 4750 
z
" transform="scale(0.015625)"/>
      </defs>
      <use xlink:href="#DejaVuSans-4f"/>
      <use xlink:href="#DejaVuSans-73" x="78.710938"/>
      <use xlink:href="#DejaVuSans-69" x="130.810547"/>
      <use xlink:href="#DejaVuSans-72" x="158.59375"/>
      <use xlink:href="#DejaVuSans-69" x="199.707031"/>
      <use xlink:href="#DejaVuSans-73" x="227.490234"/>
     </g>
    </g>
    <g id="line2d_61">
     <path d="M 652.68 250.874687 
L 662.68 250.874687 
L 672.68 250.874687 
" style="fill: none; stroke: #1f77b4; stroke-width: 1.5; stroke-linecap: square"/>
    </g>
    <g id="text_21">
     <!-- Persephone -->
     <g transform="translate(680.68 254.374687)scale(0.1 -0.1)">
      <defs>
       <path id="DejaVuSans-50" d="M 1259 4147 
L 1259 2394 
L 2053 2394 
Q 2494 2394 2734 2622 
Q 2975 2850 2975 3272 
Q 2975 3691 2734 3919 
Q 2494 4147 2053 4147 
L 1259 4147 
z
M 628 4666 
L 2053 4666 
Q 2838 4666 3239 4311 
Q 3641 3956 3641 3272 
Q 3641 2581 3239 2228 
Q 2838 1875 2053 1875 
L 1259 1875 
L 1259 0 
L 628 0 
L 628 4666 
z
" transform="scale(0.015625)"/>
      </defs>
      <use xlink:href="#DejaVuSans-50"/>
      <use xlink:href="#DejaVuSans-65" x="56.677734"/>
      <use xlink:href="#DejaVuSans-72" x="118.201172"/>
      <use xlink:href="#DejaVuSans-73" x="159.314453"/>
      <use xlink:href="#DejaVuSans-65" x="211.414062"/>
      <use xlink:href="#DejaVuSans-70" x="272.9375"/>
      <use xlink:href="#DejaVuSans-68" x="336.414062"/>
      <use xlink:href="#DejaVuSans-6f" x="399.792969"/>
      <use xlink:href="#DejaVuSans-6e" x="460.974609"/>
      <use xlink:href="#DejaVuSans-65" x="524.353516"/>
     </g>
    </g>
    <g id="line2d_62">
     <path d="M 652.68 265.552812 
L 662.68 265.552812 
L 672.68 265.552812 
" style="fill: none; stroke: #ff7f0e; stroke-width: 1.5; stroke-linecap: square"/>
    </g>
    <g id="text_22">
     <!-- Regina -->
     <g transform="translate(680.68 269.052812)scale(0.1 -0.1)">
      <defs>
       <path id="DejaVuSans-52" d="M 2841 2188 
Q 3044 2119 3236 1894 
Q 3428 1669 3622 1275 
L 4263 0 
L 3584 0 
L 2988 1197 
Q 2756 1666 2539 1819 
Q 2322 1972 1947 1972 
L 1259 1972 
L 1259 0 
L 628 0 
L 628 4666 
L 2053 4666 
Q 2853 4666 3247 4331 
Q 3641 3997 3641 3322 
Q 3641 2881 3436 2590 
Q 3231 2300 2841 2188 
z
M 1259 4147 
L 1259 2491 
L 2053 2491 
Q 2509 2491 2742 2702 
Q 2975 2913 2975 3322 
Q 2975 3731 2742 3939 
Q 2509 4147 2053 4147 
L 1259 4147 
z
" transform="scale(0.015625)"/>
      </defs>
      <use xlink:href="#DejaVuSans-52"/>
      <use xlink:href="#DejaVuSans-65" x="64.982422"/>
      <use xlink:href="#DejaVuSans-67" x="126.505859"/>
      <use xlink:href="#DejaVuSans-69" x="189.982422"/>
      <use xlink:href="#DejaVuSans-6e" x="217.765625"/>
      <use xlink:href="#DejaVuSans-61" x="281.144531"/>
     </g>
    </g>
    <g id="line2d_63">
     <path d="M 652.68 280.230937 
L 662.68 280.230937 
L 672.68 280.230937 
" style="fill: none; stroke: #2ca02c; stroke-width: 1.5; stroke-linecap: square"/>
    </g>
    <g id="text_23">
     <!-- Santo -->
     <g transform="translate(680.68 283.730937)scale(0.1 -0.1)">
      <defs>
       <path id="DejaVuSans-53" d="M 3425 4513 
L 3425 3897 
Q 3066 4069 2747 4153 
Q 2428 4238 2131 4238 
Q 1616 4238 1336 4038 
Q 1056 3838 1056 3469 
Q 1056 3159 1242 3001 
Q 1428 2844 1947 2747 
L 2328 2669 
Q 3034 2534 3370 2195 
Q 3706 1856 3706 1288 
Q 3706 609 3251 259 
Q 2797 -91 1919 -91 
Q 1588 -91 1214 -16 
Q 841 59 441 206 
L 441 856 
Q 825 641 1194 531 
Q 1563 422 1919 422 
Q 2459 422 2753 634 
Q 3047 847 3047 1241 
Q 3047 1584 2836 1778 
Q 2625 1972 2144 2069 
L 1759 2144 
Q 1053 2284 737 2584 
Q 422 2884 422 3419 
Q 422 4038 858 4394 
Q 1294 4750 2059 4750 
Q 2388 4750 2728 4690 
Q 3069 4631 3425 4513 
z
" transform="scale(0.015625)"/>
       <path id="DejaVuSans-74" d="M 1172 4494 
L 1172 3500 
L 2356 3500 
L 2356 3053 
L 1172 3053 
L 1172 1153 
Q 1172 725 1289 603 
Q 1406 481 1766 481 
L 2356 481 
L 2356 0 
L 1766 0 
Q 1100 0 847 248 
Q 594 497 594 1153 
L 594 3053 
L 172 3053 
L 172 3500 
L 594 3500 
L 594 4494 
L 1172 4494 
z
" transform="scale(0.015625)"/>
      </defs>
      <use xlink:href="#DejaVuSans-53"/>
      <use xlink:href="#DejaVuSans-61" x="63.476562"/>
      <use xlink:href="#DejaVuSans-6e" x="124.755859"/>
      <use xlink:href="#DejaVuSans-74" x="188.134766"/>
      <use xlink:href="#DejaVuSans-6f" x="227.34375"/>
     </g>
    </g>
    <g id="line2d_64">
     <path d="M 652.68 294.909062 
L 662.68 294.909062 
L 672.68 294.909062 
" style="fill: none; stroke: #d62728; stroke-width: 1.5; stroke-linecap: square"/>
    </g>
    <g id="text_24">
     <!-- St. Albans -->
     <g transform="translate(680.68 298.409062)scale(0.1 -0.1)">
      <defs>
       <path id="DejaVuSans-2e" d="M 684 794 
L 1344 794 
L 1344 0 
L 684 0 
L 684 794 
z
" transform="scale(0.015625)"/>
      </defs>
      <use xlink:href="#DejaVuSans-53"/>
      <use xlink:href="#DejaVuSans-74" x="63.476562"/>
      <use xlink:href="#DejaVuSans-2e" x="102.685547"/>
      <use xlink:href="#DejaVuSans-20" x="134.472656"/>
      <use xlink:href="#DejaVuSans-41" x="166.259766"/>
      <use xlink:href="#DejaVuSans-6c" x="234.667969"/>
      <use xlink:href="#DejaVuSans-62" x="262.451172"/>
      <use xlink:href="#DejaVuSans-61" x="325.927734"/>
      <use xlink:href="#DejaVuSans-6e" x="387.207031"/>
      <use xlink:href="#DejaVuSans-73" x="450.585938"/>
     </g>
    </g>
    <g id="line2d_65">
     <path d="M 652.68 309.587187 
L 662.68 309.587187 
L 672.68 309.587187 
" style="fill: none; stroke: #9467bd; stroke-width: 1.5; stroke-linecap: square"/>
    </g>
    <g id="text_25">
     <!-- Triumph -->
     <g transform="translate(680.68 313.087187)scale(0.1 -0.1)">
      <defs>
       <path id="DejaVuSans-54" d="M -19 4666 
L 3928 4666 
L 3928 4134 
L 2272 4134 
L 2272 0 
L 1638 0 
L 1638 4134 
L -19 4134 
L -19 4666 
z
" transform="scale(0.015625)"/>
      </defs>
      <use xlink:href="#DejaVuSans-54"/>
      <use xlink:href="#DejaVuSans-72" x="46.333984"/>
      <use xlink:href="#DejaVuSans-69" x="87.447266"/>
      <use xlink:href="#DejaVuSans-75" x="115.230469"/>
      <use xlink:href="#DejaVuSans-6d" x="178.609375"/>
      <use xlink:href="#DejaVuSans-70" x="276.021484"/>
      <use xlink:href="#DejaVuSans-68" x="339.498047"/>
     </g>
    </g>
    <g id="line2d_66">
     <path d="M 652.68 324.265312 
L 662.68 324.265312 
L 672.68 324.265312 
" style="fill: none; stroke: #8c564b; stroke-width: 1.5; stroke-linecap: square"/>
    </g>
    <g id="text_26">
     <!-- Whitefall -->
     <g transform="translate(680.68 327.765312)scale(0.1 -0.1)">
      <defs>
       <path id="DejaVuSans-57" d="M 213 4666 
L 850 4666 
L 1831 722 
L 2809 4666 
L 3519 4666 
L 4500 722 
L 5478 4666 
L 6119 4666 
L 4947 0 
L 4153 0 
L 3169 4050 
L 2175 0 
L 1381 0 
L 213 4666 
z
" transform="scale(0.015625)"/>
       <path id="DejaVuSans-66" d="M 2375 4863 
L 2375 4384 
L 1825 4384 
Q 1516 4384 1395 4259 
Q 1275 4134 1275 3809 
L 1275 3500 
L 2222 3500 
L 2222 3053 
L 1275 3053 
L 1275 0 
L 697 0 
L 697 3053 
L 147 3053 
L 147 3500 
L 697 3500 
L 697 3744 
Q 697 4328 969 4595 
Q 1241 4863 1831 4863 
L 2375 4863 
z
" transform="scale(0.015625)"/>
      </defs>
      <use xlink:href="#DejaVuSans-57"/>
      <use xlink:href="#DejaVuSans-68" x="98.876953"/>
      <use xlink:href="#DejaVuSans-69" x="162.255859"/>
      <use xlink:href="#DejaVuSans-74" x="190.039062"/>
      <use xlink:href="#DejaVuSans-65" x="229.248047"/>
      <use xlink:href="#DejaVuSans-66" x="290.771484"/>
      <use xlink:href="#DejaVuSans-61" x="325.976562"/>
      <use xlink:href="#DejaVuSans-6c" x="387.255859"/>
      <use xlink:href="#DejaVuSans-6c" x="415.039062"/>
     </g>
    </g>
   </g>
  </g>
 </g>
 <defs>
  <clipPath id="pe1785795f5">
   <rect x="108" y="51.84" width="535.68" height="326.16"/>
  </clipPath>
 </defs>
</svg>
